G04 MADE WITH FRITZING*
G04 WWW.FRITZING.ORG*
G04 DOUBLE SIDED*
G04 HOLES PLATED*
G04 CONTOUR ON CENTER OF CONTOUR VECTOR*
%ASAXBY*%
%FSLAX23Y23*%
%MOIN*%
%OFA0B0*%
%SFA1.0B1.0*%
%ADD10C,0.078000*%
%ADD11C,0.075000*%
%ADD12C,0.070000*%
%ADD13C,0.074000*%
%ADD14C,0.079370*%
%ADD15R,0.075000X0.075000*%
%ADD16R,0.069972X0.070000*%
%ADD17C,0.024000*%
%ADD18C,0.048000*%
%ADD19R,0.001000X0.001000*%
%LNCOPPER0*%
G90*
G70*
G54D10*
X1501Y2280D03*
X1501Y2380D03*
G54D11*
X901Y2430D03*
X1201Y2430D03*
X701Y1580D03*
X1001Y1580D03*
X701Y1480D03*
X1001Y1480D03*
X701Y1380D03*
X1001Y1380D03*
X701Y1280D03*
X1001Y1280D03*
G54D10*
X501Y980D03*
X501Y880D03*
X601Y1180D03*
X601Y1280D03*
G54D11*
X501Y1980D03*
X501Y2280D03*
X601Y1980D03*
X601Y2280D03*
X701Y1980D03*
X701Y2280D03*
X801Y1980D03*
X801Y2280D03*
G54D10*
X601Y1580D03*
X601Y1680D03*
X501Y1280D03*
X501Y1180D03*
X901Y2330D03*
X1001Y2330D03*
X1301Y1480D03*
X1301Y1580D03*
X2201Y980D03*
X2201Y880D03*
X1301Y80D03*
X1301Y180D03*
X1301Y280D03*
X1301Y380D03*
G54D11*
X845Y579D03*
X1151Y580D03*
X845Y479D03*
X1151Y480D03*
X901Y1980D03*
X901Y2230D03*
X701Y1680D03*
X1351Y1680D03*
X995Y1979D03*
X1001Y2230D03*
X1495Y1779D03*
X1495Y1979D03*
G54D12*
X351Y980D03*
X351Y880D03*
G54D11*
X251Y980D03*
X251Y580D03*
G54D13*
X251Y1480D03*
X251Y1580D03*
X251Y1680D03*
G54D11*
X151Y1330D03*
X151Y930D03*
G54D10*
X2201Y280D03*
X1401Y1880D03*
X1401Y1980D03*
X1401Y2080D03*
X1401Y2180D03*
X1401Y2280D03*
X1401Y2380D03*
G54D12*
X1451Y1580D03*
X1451Y1480D03*
X1451Y1380D03*
X1451Y1280D03*
X1451Y1180D03*
X1451Y1080D03*
X1451Y980D03*
X1451Y880D03*
X1451Y780D03*
X1451Y680D03*
X1451Y580D03*
X1451Y480D03*
X1451Y380D03*
X1451Y280D03*
X1451Y180D03*
X2051Y1580D03*
X2051Y1480D03*
X2051Y1380D03*
X2051Y1280D03*
X2051Y1180D03*
X2051Y1080D03*
X2051Y980D03*
X2051Y880D03*
X2051Y780D03*
X2051Y680D03*
X2051Y580D03*
X2051Y480D03*
X2051Y380D03*
X2051Y280D03*
X2051Y180D03*
G54D14*
X1251Y480D03*
X1251Y580D03*
X1251Y680D03*
X1251Y780D03*
X1251Y880D03*
X1251Y980D03*
X1251Y1080D03*
X651Y180D03*
X651Y80D03*
X2201Y1430D03*
X2201Y1330D03*
G54D15*
X701Y1580D03*
X501Y1980D03*
G54D16*
X1451Y1580D03*
G54D17*
X1151Y1929D02*
X1152Y1181D01*
D02*
X1152Y1181D02*
X631Y1180D01*
D02*
X1371Y2080D02*
X1256Y2079D01*
D02*
X1256Y2079D02*
X1151Y1929D01*
G54D18*
D02*
X1239Y2421D02*
X1361Y2390D01*
D02*
X701Y2431D02*
X861Y2430D01*
D02*
X701Y2320D02*
X701Y2431D01*
G54D17*
D02*
X1501Y2530D02*
X1501Y2410D01*
D02*
X1100Y2530D02*
X1501Y2530D01*
D02*
X1101Y2129D02*
X1100Y2530D01*
D02*
X801Y2252D02*
X801Y2130D01*
D02*
X801Y2130D02*
X1101Y2129D01*
G54D18*
D02*
X1442Y2280D02*
X1459Y2280D01*
G54D17*
D02*
X501Y2081D02*
X501Y2009D01*
D02*
X1151Y2079D02*
X501Y2081D01*
D02*
X1371Y2280D02*
X1302Y2279D01*
D02*
X1302Y2279D02*
X1151Y2079D01*
G54D18*
D02*
X851Y981D02*
X1209Y980D01*
D02*
X846Y618D02*
X851Y981D01*
D02*
X1390Y1680D02*
X1500Y1681D01*
D02*
X1500Y1681D02*
X1497Y1739D01*
D02*
X1342Y180D02*
X1410Y180D01*
D02*
X601Y1321D02*
X600Y1380D01*
D02*
X600Y1380D02*
X661Y1380D01*
D02*
X1209Y580D02*
X1190Y580D01*
D02*
X806Y579D02*
X290Y580D01*
D02*
X2161Y1317D02*
X2089Y1293D01*
D02*
X701Y1941D02*
X701Y1780D01*
D02*
X701Y1780D02*
X600Y1780D01*
D02*
X600Y1780D02*
X601Y1721D01*
D02*
X2159Y980D02*
X2091Y980D01*
D02*
X1352Y881D02*
X1293Y881D01*
D02*
X1351Y480D02*
X1352Y881D01*
D02*
X1410Y480D02*
X1351Y480D01*
D02*
X2159Y280D02*
X2091Y280D01*
D02*
X1200Y1181D02*
X1232Y1118D01*
D02*
X1200Y1780D02*
X1200Y1181D01*
D02*
X1301Y1780D02*
X1200Y1780D01*
D02*
X1301Y1980D02*
X1301Y1780D01*
D02*
X1359Y1980D02*
X1301Y1980D01*
D02*
X901Y2289D02*
X901Y2270D01*
D02*
X801Y1281D02*
X801Y1941D01*
D02*
X740Y1280D02*
X801Y1281D01*
D02*
X1342Y380D02*
X1410Y380D01*
D02*
X1342Y1580D02*
X1410Y1580D01*
D02*
X996Y1939D02*
X1000Y1620D01*
D02*
X1051Y681D02*
X1209Y680D01*
D02*
X1051Y281D02*
X1051Y681D01*
D02*
X1259Y280D02*
X1051Y281D01*
D02*
X1600Y1280D02*
X1491Y1280D01*
D02*
X1600Y1880D02*
X1600Y1280D01*
D02*
X1442Y1880D02*
X1600Y1880D01*
D02*
X701Y1541D02*
X701Y1520D01*
D02*
X861Y1980D02*
X840Y1980D01*
D02*
X459Y880D02*
X388Y880D01*
D02*
X401Y1082D02*
X367Y1014D01*
D02*
X601Y1082D02*
X401Y1082D01*
D02*
X601Y1139D02*
X601Y1082D01*
D02*
X1001Y2289D02*
X1001Y2270D01*
D02*
X150Y1370D02*
X149Y1480D01*
D02*
X149Y1480D02*
X208Y1480D01*
D02*
X1601Y80D02*
X1601Y181D01*
D02*
X1601Y181D02*
X2010Y180D01*
D02*
X1342Y80D02*
X1601Y80D01*
D02*
X1209Y1080D02*
X751Y1080D01*
D02*
X751Y1080D02*
X652Y980D01*
D02*
X652Y980D02*
X542Y980D01*
D02*
X251Y1522D02*
X251Y1538D01*
D02*
X1342Y280D02*
X1410Y280D01*
D02*
X1209Y480D02*
X1190Y480D01*
D02*
X2159Y880D02*
X2091Y880D01*
D02*
X313Y980D02*
X290Y980D01*
D02*
X701Y1641D02*
X701Y1620D01*
D02*
X501Y179D02*
X272Y547D01*
D02*
X609Y180D02*
X501Y179D01*
D02*
X149Y1081D02*
X299Y1081D01*
D02*
X299Y1081D02*
X400Y1180D01*
D02*
X150Y970D02*
X149Y1081D01*
D02*
X400Y1180D02*
X459Y1180D01*
D02*
X1352Y981D02*
X1293Y981D01*
D02*
X1352Y1279D02*
X1352Y981D01*
D02*
X1410Y1280D02*
X1352Y1279D01*
D02*
X1496Y2018D02*
X1500Y2181D01*
D02*
X1500Y2181D02*
X1442Y2180D01*
D02*
X1342Y1480D02*
X1410Y1480D01*
D02*
X852Y79D02*
X693Y80D01*
D02*
X846Y439D02*
X852Y79D01*
D02*
X1001Y2530D02*
X1001Y2371D01*
D02*
X501Y2530D02*
X1001Y2530D01*
D02*
X501Y2320D02*
X501Y2530D01*
D02*
X250Y1722D02*
X249Y1979D01*
D02*
X249Y1979D02*
X461Y1980D01*
D02*
X640Y2280D02*
X661Y2280D01*
D02*
X601Y1941D02*
X601Y1881D01*
D02*
X601Y1881D02*
X500Y1881D01*
D02*
X500Y1881D02*
X500Y1580D01*
D02*
X500Y1580D02*
X293Y1580D01*
D02*
X202Y1180D02*
X50Y1180D01*
D02*
X50Y1180D02*
X50Y2081D01*
D02*
X351Y1280D02*
X202Y1180D01*
D02*
X50Y2081D02*
X250Y2180D01*
D02*
X459Y1280D02*
X351Y1280D01*
D02*
X250Y2180D02*
X601Y2180D01*
D02*
X601Y2180D02*
X601Y2241D01*
D02*
X950Y79D02*
X1259Y80D01*
D02*
X950Y780D02*
X950Y79D01*
D02*
X1209Y780D02*
X950Y780D01*
D02*
X240Y618D02*
X162Y892D01*
D02*
X601Y1539D02*
X600Y1480D01*
D02*
X600Y1480D02*
X661Y1480D01*
D02*
X2089Y1468D02*
X2161Y1443D01*
G54D19*
X1664Y2552D02*
X1684Y2552D01*
X1705Y2552D02*
X1726Y2552D01*
X1750Y2552D02*
X1762Y2552D01*
X1786Y2552D02*
X1809Y2552D01*
X1839Y2552D02*
X1850Y2552D01*
X1880Y2552D02*
X1880Y2552D01*
X2035Y2552D02*
X2035Y2552D01*
X2200Y2552D02*
X2210Y2552D01*
X1662Y2551D02*
X1686Y2551D01*
X1703Y2551D02*
X1728Y2551D01*
X1749Y2551D02*
X1763Y2551D01*
X1784Y2551D02*
X1810Y2551D01*
X1836Y2551D02*
X1852Y2551D01*
X1878Y2551D02*
X1882Y2551D01*
X2033Y2551D02*
X2036Y2551D01*
X2199Y2551D02*
X2213Y2551D01*
X1661Y2550D02*
X1687Y2550D01*
X1702Y2550D02*
X1728Y2550D01*
X1748Y2550D02*
X1764Y2550D01*
X1784Y2550D02*
X1811Y2550D01*
X1835Y2550D02*
X1852Y2550D01*
X1878Y2550D02*
X1883Y2550D01*
X2032Y2550D02*
X2037Y2550D01*
X2198Y2550D02*
X2214Y2550D01*
X1660Y2549D02*
X1687Y2549D01*
X1701Y2549D02*
X1728Y2549D01*
X1748Y2549D02*
X1764Y2549D01*
X1784Y2549D02*
X1811Y2549D01*
X1833Y2549D02*
X1853Y2549D01*
X1878Y2549D02*
X1883Y2549D01*
X2032Y2549D02*
X2037Y2549D01*
X2198Y2549D02*
X2215Y2549D01*
X1659Y2548D02*
X1686Y2548D01*
X1701Y2548D02*
X1728Y2548D01*
X1748Y2548D02*
X1764Y2548D01*
X1784Y2548D02*
X1811Y2548D01*
X1833Y2548D02*
X1852Y2548D01*
X1877Y2548D02*
X1883Y2548D01*
X2032Y2548D02*
X2037Y2548D01*
X2198Y2548D02*
X2216Y2548D01*
X1659Y2547D02*
X1686Y2547D01*
X1701Y2547D02*
X1727Y2547D01*
X1748Y2547D02*
X1764Y2547D01*
X1784Y2547D02*
X1811Y2547D01*
X1832Y2547D02*
X1851Y2547D01*
X1877Y2547D02*
X1883Y2547D01*
X2032Y2547D02*
X2037Y2547D01*
X2199Y2547D02*
X2217Y2547D01*
X1659Y2546D02*
X1664Y2546D01*
X1701Y2546D02*
X1706Y2546D01*
X1748Y2546D02*
X1753Y2546D01*
X1759Y2546D02*
X1764Y2546D01*
X1784Y2546D02*
X1788Y2546D01*
X1806Y2546D02*
X1811Y2546D01*
X1832Y2546D02*
X1838Y2546D01*
X1842Y2546D02*
X1847Y2546D01*
X1877Y2546D02*
X1884Y2546D01*
X2032Y2546D02*
X2037Y2546D01*
X2211Y2546D02*
X2218Y2546D01*
X1659Y2545D02*
X1664Y2545D01*
X1701Y2545D02*
X1705Y2545D01*
X1748Y2545D02*
X1753Y2545D01*
X1759Y2545D02*
X1764Y2545D01*
X1784Y2545D02*
X1788Y2545D01*
X1806Y2545D02*
X1811Y2545D01*
X1831Y2545D02*
X1837Y2545D01*
X1842Y2545D02*
X1847Y2545D01*
X1877Y2545D02*
X1884Y2545D01*
X2032Y2545D02*
X2037Y2545D01*
X2212Y2545D02*
X2218Y2545D01*
X1659Y2544D02*
X1664Y2544D01*
X1701Y2544D02*
X1705Y2544D01*
X1748Y2544D02*
X1753Y2544D01*
X1759Y2544D02*
X1764Y2544D01*
X1784Y2544D02*
X1788Y2544D01*
X1806Y2544D02*
X1811Y2544D01*
X1831Y2544D02*
X1836Y2544D01*
X1842Y2544D02*
X1847Y2544D01*
X1876Y2544D02*
X1884Y2544D01*
X2032Y2544D02*
X2037Y2544D01*
X2213Y2544D02*
X2219Y2544D01*
X1659Y2543D02*
X1664Y2543D01*
X1701Y2543D02*
X1705Y2543D01*
X1748Y2543D02*
X1753Y2543D01*
X1759Y2543D02*
X1764Y2543D01*
X1784Y2543D02*
X1788Y2543D01*
X1806Y2543D02*
X1811Y2543D01*
X1830Y2543D02*
X1836Y2543D01*
X1842Y2543D02*
X1847Y2543D01*
X1876Y2543D02*
X1885Y2543D01*
X2032Y2543D02*
X2037Y2543D01*
X2214Y2543D02*
X2220Y2543D01*
X1659Y2542D02*
X1664Y2542D01*
X1701Y2542D02*
X1705Y2542D01*
X1748Y2542D02*
X1753Y2542D01*
X1759Y2542D02*
X1764Y2542D01*
X1784Y2542D02*
X1788Y2542D01*
X1806Y2542D02*
X1811Y2542D01*
X1830Y2542D02*
X1835Y2542D01*
X1842Y2542D02*
X1847Y2542D01*
X1876Y2542D02*
X1885Y2542D01*
X2032Y2542D02*
X2037Y2542D01*
X2214Y2542D02*
X2221Y2542D01*
X1659Y2541D02*
X1664Y2541D01*
X1701Y2541D02*
X1705Y2541D01*
X1748Y2541D02*
X1753Y2541D01*
X1759Y2541D02*
X1764Y2541D01*
X1784Y2541D02*
X1788Y2541D01*
X1806Y2541D02*
X1811Y2541D01*
X1829Y2541D02*
X1835Y2541D01*
X1842Y2541D02*
X1847Y2541D01*
X1875Y2541D02*
X1885Y2541D01*
X2032Y2541D02*
X2037Y2541D01*
X2215Y2541D02*
X2221Y2541D01*
X1659Y2540D02*
X1664Y2540D01*
X1701Y2540D02*
X1705Y2540D01*
X1748Y2540D02*
X1753Y2540D01*
X1759Y2540D02*
X1764Y2540D01*
X1784Y2540D02*
X1788Y2540D01*
X1806Y2540D02*
X1811Y2540D01*
X1829Y2540D02*
X1834Y2540D01*
X1842Y2540D02*
X1847Y2540D01*
X1875Y2540D02*
X1885Y2540D01*
X2032Y2540D02*
X2037Y2540D01*
X2216Y2540D02*
X2222Y2540D01*
X1659Y2539D02*
X1664Y2539D01*
X1701Y2539D02*
X1705Y2539D01*
X1748Y2539D02*
X1753Y2539D01*
X1759Y2539D02*
X1764Y2539D01*
X1784Y2539D02*
X1788Y2539D01*
X1806Y2539D02*
X1811Y2539D01*
X1828Y2539D02*
X1834Y2539D01*
X1842Y2539D02*
X1847Y2539D01*
X1875Y2539D02*
X1886Y2539D01*
X1954Y2539D02*
X1965Y2539D01*
X1973Y2539D02*
X1976Y2539D01*
X1998Y2539D02*
X2012Y2539D01*
X2032Y2539D02*
X2037Y2539D01*
X2042Y2539D02*
X2053Y2539D01*
X2079Y2539D02*
X2095Y2539D01*
X2120Y2539D02*
X2131Y2539D01*
X2139Y2539D02*
X2142Y2539D01*
X2163Y2539D02*
X2177Y2539D01*
X2217Y2539D02*
X2223Y2539D01*
X1659Y2538D02*
X1664Y2538D01*
X1701Y2538D02*
X1705Y2538D01*
X1748Y2538D02*
X1753Y2538D01*
X1759Y2538D02*
X1764Y2538D01*
X1784Y2538D02*
X1788Y2538D01*
X1806Y2538D02*
X1811Y2538D01*
X1828Y2538D02*
X1833Y2538D01*
X1842Y2538D02*
X1847Y2538D01*
X1874Y2538D02*
X1886Y2538D01*
X1953Y2538D02*
X1966Y2538D01*
X1972Y2538D02*
X1977Y2538D01*
X1996Y2538D02*
X2013Y2538D01*
X2032Y2538D02*
X2037Y2538D01*
X2040Y2538D02*
X2055Y2538D01*
X2078Y2538D02*
X2095Y2538D01*
X2118Y2538D02*
X2132Y2538D01*
X2138Y2538D02*
X2143Y2538D01*
X2162Y2538D02*
X2179Y2538D01*
X2217Y2538D02*
X2224Y2538D01*
X1659Y2537D02*
X1664Y2537D01*
X1701Y2537D02*
X1705Y2537D01*
X1748Y2537D02*
X1753Y2537D01*
X1759Y2537D02*
X1764Y2537D01*
X1784Y2537D02*
X1811Y2537D01*
X1827Y2537D02*
X1833Y2537D01*
X1842Y2537D02*
X1847Y2537D01*
X1874Y2537D02*
X1879Y2537D01*
X1881Y2537D02*
X1886Y2537D01*
X1952Y2537D02*
X1967Y2537D01*
X1972Y2537D02*
X1977Y2537D01*
X1995Y2537D02*
X2014Y2537D01*
X2032Y2537D02*
X2037Y2537D01*
X2039Y2537D02*
X2056Y2537D01*
X2077Y2537D02*
X2096Y2537D01*
X2117Y2537D02*
X2133Y2537D01*
X2138Y2537D02*
X2143Y2537D01*
X2161Y2537D02*
X2180Y2537D01*
X2218Y2537D02*
X2224Y2537D01*
X1659Y2536D02*
X1664Y2536D01*
X1701Y2536D02*
X1705Y2536D01*
X1748Y2536D02*
X1753Y2536D01*
X1759Y2536D02*
X1764Y2536D01*
X1784Y2536D02*
X1811Y2536D01*
X1827Y2536D02*
X1832Y2536D01*
X1842Y2536D02*
X1847Y2536D01*
X1874Y2536D02*
X1879Y2536D01*
X1882Y2536D02*
X1887Y2536D01*
X1951Y2536D02*
X1968Y2536D01*
X1972Y2536D02*
X1977Y2536D01*
X1994Y2536D02*
X2015Y2536D01*
X2032Y2536D02*
X2057Y2536D01*
X2076Y2536D02*
X2095Y2536D01*
X2117Y2536D02*
X2134Y2536D01*
X2138Y2536D02*
X2143Y2536D01*
X2160Y2536D02*
X2181Y2536D01*
X2219Y2536D02*
X2225Y2536D01*
X1659Y2535D02*
X1664Y2535D01*
X1701Y2535D02*
X1706Y2535D01*
X1748Y2535D02*
X1753Y2535D01*
X1759Y2535D02*
X1764Y2535D01*
X1784Y2535D02*
X1811Y2535D01*
X1826Y2535D02*
X1832Y2535D01*
X1842Y2535D02*
X1847Y2535D01*
X1874Y2535D02*
X1879Y2535D01*
X1882Y2535D02*
X1887Y2535D01*
X1950Y2535D02*
X1970Y2535D01*
X1972Y2535D02*
X1977Y2535D01*
X1993Y2535D02*
X2016Y2535D01*
X2032Y2535D02*
X2058Y2535D01*
X2075Y2535D02*
X2095Y2535D01*
X2116Y2535D02*
X2135Y2535D01*
X2138Y2535D02*
X2143Y2535D01*
X2159Y2535D02*
X2182Y2535D01*
X2220Y2535D02*
X2225Y2535D01*
X1659Y2534D02*
X1665Y2534D01*
X1701Y2534D02*
X1706Y2534D01*
X1748Y2534D02*
X1753Y2534D01*
X1759Y2534D02*
X1764Y2534D01*
X1784Y2534D02*
X1811Y2534D01*
X1826Y2534D02*
X1831Y2534D01*
X1842Y2534D02*
X1847Y2534D01*
X1873Y2534D02*
X1878Y2534D01*
X1882Y2534D02*
X1887Y2534D01*
X1950Y2534D02*
X1956Y2534D01*
X1963Y2534D02*
X1977Y2534D01*
X1992Y2534D02*
X2000Y2534D01*
X2009Y2534D02*
X2017Y2534D01*
X2032Y2534D02*
X2044Y2534D01*
X2051Y2534D02*
X2059Y2534D01*
X2075Y2534D02*
X2081Y2534D01*
X2116Y2534D02*
X2122Y2534D01*
X2129Y2534D02*
X2143Y2534D01*
X2158Y2534D02*
X2166Y2534D01*
X2175Y2534D02*
X2183Y2534D01*
X2220Y2534D02*
X2225Y2534D01*
X1660Y2533D02*
X1666Y2533D01*
X1701Y2533D02*
X1707Y2533D01*
X1748Y2533D02*
X1753Y2533D01*
X1759Y2533D02*
X1764Y2533D01*
X1784Y2533D02*
X1811Y2533D01*
X1825Y2533D02*
X1831Y2533D01*
X1842Y2533D02*
X1847Y2533D01*
X1873Y2533D02*
X1878Y2533D01*
X1882Y2533D02*
X1888Y2533D01*
X1950Y2533D02*
X1955Y2533D01*
X1964Y2533D02*
X1977Y2533D01*
X1992Y2533D02*
X1998Y2533D01*
X2011Y2533D02*
X2018Y2533D01*
X2032Y2533D02*
X2042Y2533D01*
X2053Y2533D02*
X2059Y2533D01*
X2075Y2533D02*
X2080Y2533D01*
X2115Y2533D02*
X2121Y2533D01*
X2130Y2533D02*
X2143Y2533D01*
X2157Y2533D02*
X2164Y2533D01*
X2177Y2533D02*
X2183Y2533D01*
X2221Y2533D02*
X2226Y2533D01*
X1660Y2532D02*
X1680Y2532D01*
X1701Y2532D02*
X1721Y2532D01*
X1745Y2532D02*
X1766Y2532D01*
X1784Y2532D02*
X1809Y2532D01*
X1825Y2532D02*
X1830Y2532D01*
X1842Y2532D02*
X1847Y2532D01*
X1873Y2532D02*
X1878Y2532D01*
X1883Y2532D02*
X1888Y2532D01*
X1949Y2532D02*
X1954Y2532D01*
X1965Y2532D02*
X1977Y2532D01*
X1991Y2532D02*
X1997Y2532D01*
X2012Y2532D02*
X2018Y2532D01*
X2032Y2532D02*
X2041Y2532D01*
X2054Y2532D02*
X2060Y2532D01*
X2075Y2532D02*
X2079Y2532D01*
X2115Y2532D02*
X2120Y2532D01*
X2131Y2532D02*
X2143Y2532D01*
X2157Y2532D02*
X2163Y2532D01*
X2178Y2532D02*
X2184Y2532D01*
X2221Y2532D02*
X2226Y2532D01*
X1661Y2531D02*
X1681Y2531D01*
X1702Y2531D02*
X1722Y2531D01*
X1744Y2531D02*
X1768Y2531D01*
X1784Y2531D02*
X1788Y2531D01*
X1825Y2531D02*
X1830Y2531D01*
X1842Y2531D02*
X1847Y2531D01*
X1872Y2531D02*
X1877Y2531D01*
X1883Y2531D02*
X1888Y2531D01*
X1949Y2531D02*
X1954Y2531D01*
X1966Y2531D02*
X1977Y2531D01*
X1991Y2531D02*
X1996Y2531D01*
X2013Y2531D02*
X2018Y2531D01*
X2032Y2531D02*
X2040Y2531D01*
X2055Y2531D02*
X2060Y2531D01*
X2074Y2531D02*
X2079Y2531D01*
X2115Y2531D02*
X2120Y2531D01*
X2132Y2531D02*
X2143Y2531D01*
X2157Y2531D02*
X2162Y2531D01*
X2179Y2531D02*
X2184Y2531D01*
X2221Y2531D02*
X2226Y2531D01*
X1661Y2530D02*
X1681Y2530D01*
X1703Y2530D02*
X1722Y2530D01*
X1743Y2530D02*
X1769Y2530D01*
X1784Y2530D02*
X1788Y2530D01*
X1825Y2530D02*
X1830Y2530D01*
X1842Y2530D02*
X1847Y2530D01*
X1872Y2530D02*
X1877Y2530D01*
X1883Y2530D02*
X1888Y2530D01*
X1949Y2530D02*
X1954Y2530D01*
X1967Y2530D02*
X1977Y2530D01*
X1991Y2530D02*
X1996Y2530D01*
X2014Y2530D02*
X2018Y2530D01*
X2032Y2530D02*
X2039Y2530D01*
X2055Y2530D02*
X2060Y2530D01*
X2074Y2530D02*
X2079Y2530D01*
X2115Y2530D02*
X2120Y2530D01*
X2133Y2530D02*
X2143Y2530D01*
X2157Y2530D02*
X2162Y2530D01*
X2179Y2530D02*
X2184Y2530D01*
X2221Y2530D02*
X2226Y2530D01*
X1661Y2529D02*
X1681Y2529D01*
X1702Y2529D02*
X1722Y2529D01*
X1743Y2529D02*
X1769Y2529D01*
X1784Y2529D02*
X1788Y2529D01*
X1825Y2529D02*
X1830Y2529D01*
X1842Y2529D02*
X1847Y2529D01*
X1872Y2529D02*
X1877Y2529D01*
X1884Y2529D02*
X1889Y2529D01*
X1950Y2529D02*
X1954Y2529D01*
X1969Y2529D02*
X1977Y2529D01*
X1991Y2529D02*
X1996Y2529D01*
X2014Y2529D02*
X2018Y2529D01*
X2032Y2529D02*
X2038Y2529D01*
X2055Y2529D02*
X2060Y2529D01*
X2074Y2529D02*
X2079Y2529D01*
X2115Y2529D02*
X2120Y2529D01*
X2134Y2529D02*
X2143Y2529D01*
X2157Y2529D02*
X2161Y2529D01*
X2179Y2529D02*
X2184Y2529D01*
X2221Y2529D02*
X2226Y2529D01*
X1660Y2528D02*
X1680Y2528D01*
X1702Y2528D02*
X1722Y2528D01*
X1742Y2528D02*
X1770Y2528D01*
X1784Y2528D02*
X1788Y2528D01*
X1825Y2528D02*
X1830Y2528D01*
X1842Y2528D02*
X1847Y2528D01*
X1872Y2528D02*
X1877Y2528D01*
X1884Y2528D02*
X1889Y2528D01*
X1950Y2528D02*
X1953Y2528D01*
X1970Y2528D02*
X1977Y2528D01*
X1991Y2528D02*
X1996Y2528D01*
X2014Y2528D02*
X2018Y2528D01*
X2032Y2528D02*
X2037Y2528D01*
X2055Y2528D02*
X2060Y2528D01*
X2074Y2528D02*
X2079Y2528D01*
X2116Y2528D02*
X2119Y2528D01*
X2136Y2528D02*
X2143Y2528D01*
X2157Y2528D02*
X2161Y2528D01*
X2179Y2528D02*
X2184Y2528D01*
X2221Y2528D02*
X2226Y2528D01*
X1660Y2527D02*
X1679Y2527D01*
X1701Y2527D02*
X1720Y2527D01*
X1742Y2527D02*
X1770Y2527D01*
X1784Y2527D02*
X1788Y2527D01*
X1825Y2527D02*
X1830Y2527D01*
X1842Y2527D02*
X1847Y2527D01*
X1871Y2527D02*
X1876Y2527D01*
X1884Y2527D02*
X1889Y2527D01*
X1952Y2527D02*
X1952Y2527D01*
X1971Y2527D02*
X1977Y2527D01*
X1991Y2527D02*
X1996Y2527D01*
X2014Y2527D02*
X2018Y2527D01*
X2032Y2527D02*
X2037Y2527D01*
X2055Y2527D02*
X2060Y2527D01*
X2074Y2527D02*
X2096Y2527D01*
X2117Y2527D02*
X2118Y2527D01*
X2137Y2527D02*
X2143Y2527D01*
X2157Y2527D02*
X2161Y2527D01*
X2179Y2527D02*
X2184Y2527D01*
X2198Y2527D02*
X2210Y2527D01*
X2221Y2527D02*
X2226Y2527D01*
X1659Y2526D02*
X1665Y2526D01*
X1701Y2526D02*
X1706Y2526D01*
X1742Y2526D02*
X1747Y2526D01*
X1765Y2526D02*
X1770Y2526D01*
X1784Y2526D02*
X1788Y2526D01*
X1826Y2526D02*
X1831Y2526D01*
X1842Y2526D02*
X1847Y2526D01*
X1871Y2526D02*
X1876Y2526D01*
X1885Y2526D02*
X1890Y2526D01*
X1972Y2526D02*
X1977Y2526D01*
X1991Y2526D02*
X1996Y2526D01*
X2014Y2526D02*
X2018Y2526D01*
X2032Y2526D02*
X2037Y2526D01*
X2055Y2526D02*
X2060Y2526D01*
X2074Y2526D02*
X2098Y2526D01*
X2138Y2526D02*
X2143Y2526D01*
X2157Y2526D02*
X2161Y2526D01*
X2179Y2526D02*
X2184Y2526D01*
X2198Y2526D02*
X2211Y2526D01*
X2221Y2526D02*
X2226Y2526D01*
X1659Y2525D02*
X1664Y2525D01*
X1701Y2525D02*
X1706Y2525D01*
X1742Y2525D02*
X1747Y2525D01*
X1765Y2525D02*
X1770Y2525D01*
X1784Y2525D02*
X1788Y2525D01*
X1826Y2525D02*
X1831Y2525D01*
X1842Y2525D02*
X1847Y2525D01*
X1871Y2525D02*
X1876Y2525D01*
X1885Y2525D02*
X1890Y2525D01*
X1972Y2525D02*
X1977Y2525D01*
X1991Y2525D02*
X1996Y2525D01*
X2014Y2525D02*
X2018Y2525D01*
X2032Y2525D02*
X2037Y2525D01*
X2055Y2525D02*
X2060Y2525D01*
X2074Y2525D02*
X2099Y2525D01*
X2138Y2525D02*
X2143Y2525D01*
X2157Y2525D02*
X2184Y2525D01*
X2198Y2525D02*
X2211Y2525D01*
X2221Y2525D02*
X2226Y2525D01*
X1659Y2524D02*
X1664Y2524D01*
X1701Y2524D02*
X1705Y2524D01*
X1742Y2524D02*
X1747Y2524D01*
X1765Y2524D02*
X1770Y2524D01*
X1784Y2524D02*
X1788Y2524D01*
X1826Y2524D02*
X1832Y2524D01*
X1842Y2524D02*
X1847Y2524D01*
X1870Y2524D02*
X1875Y2524D01*
X1885Y2524D02*
X1890Y2524D01*
X1972Y2524D02*
X1977Y2524D01*
X1991Y2524D02*
X1996Y2524D01*
X2014Y2524D02*
X2018Y2524D01*
X2032Y2524D02*
X2037Y2524D01*
X2055Y2524D02*
X2060Y2524D01*
X2074Y2524D02*
X2100Y2524D01*
X2138Y2524D02*
X2143Y2524D01*
X2157Y2524D02*
X2184Y2524D01*
X2198Y2524D02*
X2211Y2524D01*
X2221Y2524D02*
X2226Y2524D01*
X1659Y2523D02*
X1664Y2523D01*
X1701Y2523D02*
X1705Y2523D01*
X1742Y2523D02*
X1747Y2523D01*
X1765Y2523D02*
X1770Y2523D01*
X1784Y2523D02*
X1788Y2523D01*
X1827Y2523D02*
X1832Y2523D01*
X1842Y2523D02*
X1847Y2523D01*
X1870Y2523D02*
X1876Y2523D01*
X1885Y2523D02*
X1890Y2523D01*
X1972Y2523D02*
X1977Y2523D01*
X1991Y2523D02*
X1996Y2523D01*
X2014Y2523D02*
X2018Y2523D01*
X2032Y2523D02*
X2037Y2523D01*
X2055Y2523D02*
X2060Y2523D01*
X2074Y2523D02*
X2100Y2523D01*
X2138Y2523D02*
X2143Y2523D01*
X2157Y2523D02*
X2184Y2523D01*
X2198Y2523D02*
X2211Y2523D01*
X2221Y2523D02*
X2226Y2523D01*
X1659Y2522D02*
X1664Y2522D01*
X1701Y2522D02*
X1705Y2522D01*
X1742Y2522D02*
X1747Y2522D01*
X1765Y2522D02*
X1770Y2522D01*
X1784Y2522D02*
X1788Y2522D01*
X1827Y2522D02*
X1833Y2522D01*
X1842Y2522D02*
X1847Y2522D01*
X1870Y2522D02*
X1891Y2522D01*
X1972Y2522D02*
X1977Y2522D01*
X1991Y2522D02*
X1996Y2522D01*
X2014Y2522D02*
X2018Y2522D01*
X2032Y2522D02*
X2037Y2522D01*
X2055Y2522D02*
X2060Y2522D01*
X2074Y2522D02*
X2101Y2522D01*
X2138Y2522D02*
X2143Y2522D01*
X2157Y2522D02*
X2184Y2522D01*
X2198Y2522D02*
X2208Y2522D01*
X2221Y2522D02*
X2226Y2522D01*
X1659Y2521D02*
X1664Y2521D01*
X1701Y2521D02*
X1705Y2521D01*
X1742Y2521D02*
X1747Y2521D01*
X1765Y2521D02*
X1770Y2521D01*
X1784Y2521D02*
X1788Y2521D01*
X1828Y2521D02*
X1833Y2521D01*
X1842Y2521D02*
X1847Y2521D01*
X1870Y2521D02*
X1891Y2521D01*
X1972Y2521D02*
X1977Y2521D01*
X1991Y2521D02*
X1996Y2521D01*
X2014Y2521D02*
X2018Y2521D01*
X2032Y2521D02*
X2037Y2521D01*
X2055Y2521D02*
X2060Y2521D01*
X2074Y2521D02*
X2080Y2521D01*
X2096Y2521D02*
X2101Y2521D01*
X2138Y2521D02*
X2143Y2521D01*
X2157Y2521D02*
X2184Y2521D01*
X2198Y2521D02*
X2203Y2521D01*
X2221Y2521D02*
X2226Y2521D01*
X1659Y2520D02*
X1664Y2520D01*
X1701Y2520D02*
X1705Y2520D01*
X1742Y2520D02*
X1747Y2520D01*
X1765Y2520D02*
X1770Y2520D01*
X1784Y2520D02*
X1788Y2520D01*
X1828Y2520D02*
X1834Y2520D01*
X1842Y2520D02*
X1847Y2520D01*
X1869Y2520D02*
X1891Y2520D01*
X1972Y2520D02*
X1977Y2520D01*
X1991Y2520D02*
X1996Y2520D01*
X2014Y2520D02*
X2018Y2520D01*
X2032Y2520D02*
X2037Y2520D01*
X2055Y2520D02*
X2060Y2520D01*
X2074Y2520D02*
X2079Y2520D01*
X2096Y2520D02*
X2101Y2520D01*
X2138Y2520D02*
X2143Y2520D01*
X2158Y2520D02*
X2184Y2520D01*
X2198Y2520D02*
X2203Y2520D01*
X2221Y2520D02*
X2226Y2520D01*
X1659Y2519D02*
X1664Y2519D01*
X1701Y2519D02*
X1705Y2519D01*
X1742Y2519D02*
X1747Y2519D01*
X1765Y2519D02*
X1770Y2519D01*
X1784Y2519D02*
X1788Y2519D01*
X1829Y2519D02*
X1834Y2519D01*
X1842Y2519D02*
X1847Y2519D01*
X1869Y2519D02*
X1892Y2519D01*
X1972Y2519D02*
X1977Y2519D01*
X1991Y2519D02*
X1996Y2519D01*
X2014Y2519D02*
X2018Y2519D01*
X2032Y2519D02*
X2037Y2519D01*
X2055Y2519D02*
X2060Y2519D01*
X2074Y2519D02*
X2079Y2519D01*
X2096Y2519D02*
X2101Y2519D01*
X2138Y2519D02*
X2143Y2519D01*
X2179Y2519D02*
X2184Y2519D01*
X2198Y2519D02*
X2203Y2519D01*
X2221Y2519D02*
X2226Y2519D01*
X1659Y2518D02*
X1664Y2518D01*
X1701Y2518D02*
X1705Y2518D01*
X1742Y2518D02*
X1747Y2518D01*
X1765Y2518D02*
X1770Y2518D01*
X1784Y2518D02*
X1788Y2518D01*
X1829Y2518D02*
X1835Y2518D01*
X1842Y2518D02*
X1847Y2518D01*
X1869Y2518D02*
X1892Y2518D01*
X1972Y2518D02*
X1977Y2518D01*
X1991Y2518D02*
X1996Y2518D01*
X2014Y2518D02*
X2018Y2518D01*
X2032Y2518D02*
X2038Y2518D01*
X2055Y2518D02*
X2060Y2518D01*
X2074Y2518D02*
X2079Y2518D01*
X2096Y2518D02*
X2101Y2518D01*
X2138Y2518D02*
X2143Y2518D01*
X2179Y2518D02*
X2184Y2518D01*
X2198Y2518D02*
X2203Y2518D01*
X2221Y2518D02*
X2226Y2518D01*
X1659Y2517D02*
X1664Y2517D01*
X1701Y2517D02*
X1705Y2517D01*
X1742Y2517D02*
X1747Y2517D01*
X1765Y2517D02*
X1770Y2517D01*
X1784Y2517D02*
X1788Y2517D01*
X1830Y2517D02*
X1835Y2517D01*
X1842Y2517D02*
X1847Y2517D01*
X1868Y2517D02*
X1874Y2517D01*
X1887Y2517D02*
X1892Y2517D01*
X1972Y2517D02*
X1977Y2517D01*
X1991Y2517D02*
X1996Y2517D01*
X2013Y2517D02*
X2018Y2517D01*
X2032Y2517D02*
X2039Y2517D01*
X2055Y2517D02*
X2060Y2517D01*
X2074Y2517D02*
X2079Y2517D01*
X2096Y2517D02*
X2101Y2517D01*
X2138Y2517D02*
X2143Y2517D01*
X2179Y2517D02*
X2184Y2517D01*
X2198Y2517D02*
X2203Y2517D01*
X2221Y2517D02*
X2226Y2517D01*
X1659Y2516D02*
X1664Y2516D01*
X1701Y2516D02*
X1705Y2516D01*
X1742Y2516D02*
X1747Y2516D01*
X1765Y2516D02*
X1770Y2516D01*
X1784Y2516D02*
X1788Y2516D01*
X1830Y2516D02*
X1836Y2516D01*
X1842Y2516D02*
X1847Y2516D01*
X1868Y2516D02*
X1873Y2516D01*
X1887Y2516D02*
X1893Y2516D01*
X1972Y2516D02*
X1977Y2516D01*
X1991Y2516D02*
X1996Y2516D01*
X2013Y2516D02*
X2018Y2516D01*
X2032Y2516D02*
X2041Y2516D01*
X2054Y2516D02*
X2060Y2516D01*
X2074Y2516D02*
X2080Y2516D01*
X2096Y2516D02*
X2101Y2516D01*
X2138Y2516D02*
X2143Y2516D01*
X2179Y2516D02*
X2184Y2516D01*
X2198Y2516D02*
X2203Y2516D01*
X2221Y2516D02*
X2226Y2516D01*
X1659Y2515D02*
X1664Y2515D01*
X1701Y2515D02*
X1705Y2515D01*
X1742Y2515D02*
X1747Y2515D01*
X1765Y2515D02*
X1770Y2515D01*
X1784Y2515D02*
X1788Y2515D01*
X1831Y2515D02*
X1836Y2515D01*
X1842Y2515D02*
X1847Y2515D01*
X1868Y2515D02*
X1873Y2515D01*
X1888Y2515D02*
X1893Y2515D01*
X1972Y2515D02*
X1977Y2515D01*
X1991Y2515D02*
X1997Y2515D01*
X2012Y2515D02*
X2018Y2515D01*
X2032Y2515D02*
X2042Y2515D01*
X2053Y2515D02*
X2059Y2515D01*
X2074Y2515D02*
X2082Y2515D01*
X2096Y2515D02*
X2101Y2515D01*
X2138Y2515D02*
X2143Y2515D01*
X2178Y2515D02*
X2184Y2515D01*
X2198Y2515D02*
X2203Y2515D01*
X2221Y2515D02*
X2226Y2515D01*
X1659Y2514D02*
X1664Y2514D01*
X1701Y2514D02*
X1705Y2514D01*
X1742Y2514D02*
X1747Y2514D01*
X1765Y2514D02*
X1770Y2514D01*
X1784Y2514D02*
X1788Y2514D01*
X1831Y2514D02*
X1837Y2514D01*
X1842Y2514D02*
X1847Y2514D01*
X1867Y2514D02*
X1872Y2514D01*
X1888Y2514D02*
X1893Y2514D01*
X1972Y2514D02*
X1977Y2514D01*
X1992Y2514D02*
X1999Y2514D01*
X2011Y2514D02*
X2018Y2514D01*
X2032Y2514D02*
X2043Y2514D01*
X2052Y2514D02*
X2059Y2514D01*
X2074Y2514D02*
X2084Y2514D01*
X2096Y2514D02*
X2101Y2514D01*
X2138Y2514D02*
X2143Y2514D01*
X2177Y2514D02*
X2183Y2514D01*
X2198Y2514D02*
X2204Y2514D01*
X2220Y2514D02*
X2225Y2514D01*
X1659Y2513D02*
X1685Y2513D01*
X1701Y2513D02*
X1726Y2513D01*
X1742Y2513D02*
X1770Y2513D01*
X1784Y2513D02*
X1789Y2513D01*
X1832Y2513D02*
X1851Y2513D01*
X1867Y2513D02*
X1872Y2513D01*
X1888Y2513D02*
X1893Y2513D01*
X1972Y2513D02*
X1977Y2513D01*
X1992Y2513D02*
X2017Y2513D01*
X2032Y2513D02*
X2058Y2513D01*
X2074Y2513D02*
X2101Y2513D01*
X2138Y2513D02*
X2143Y2513D01*
X2159Y2513D02*
X2183Y2513D01*
X2199Y2513D02*
X2225Y2513D01*
X1659Y2512D02*
X1686Y2512D01*
X1701Y2512D02*
X1728Y2512D01*
X1742Y2512D02*
X1769Y2512D01*
X1784Y2512D02*
X1791Y2512D01*
X1832Y2512D02*
X1852Y2512D01*
X1867Y2512D02*
X1872Y2512D01*
X1889Y2512D02*
X1894Y2512D01*
X1972Y2512D02*
X1977Y2512D01*
X1993Y2512D02*
X2016Y2512D01*
X2032Y2512D02*
X2058Y2512D01*
X2074Y2512D02*
X2100Y2512D01*
X2138Y2512D02*
X2143Y2512D01*
X2157Y2512D02*
X2182Y2512D01*
X2199Y2512D02*
X2225Y2512D01*
X1660Y2511D02*
X1687Y2511D01*
X1701Y2511D02*
X1728Y2511D01*
X1743Y2511D02*
X1769Y2511D01*
X1784Y2511D02*
X1791Y2511D01*
X1833Y2511D02*
X1852Y2511D01*
X1867Y2511D02*
X1872Y2511D01*
X1889Y2511D02*
X1894Y2511D01*
X1972Y2511D02*
X1977Y2511D01*
X1994Y2511D02*
X2015Y2511D01*
X2032Y2511D02*
X2057Y2511D01*
X2074Y2511D02*
X2100Y2511D01*
X2138Y2511D02*
X2143Y2511D01*
X2157Y2511D02*
X2181Y2511D01*
X2200Y2511D02*
X2224Y2511D01*
X1660Y2510D02*
X1687Y2510D01*
X1702Y2510D02*
X1728Y2510D01*
X1743Y2510D02*
X1769Y2510D01*
X1784Y2510D02*
X1791Y2510D01*
X1834Y2510D02*
X1852Y2510D01*
X1866Y2510D02*
X1871Y2510D01*
X1889Y2510D02*
X1894Y2510D01*
X1972Y2510D02*
X1977Y2510D01*
X1995Y2510D02*
X2014Y2510D01*
X2032Y2510D02*
X2037Y2510D01*
X2039Y2510D02*
X2055Y2510D01*
X2074Y2510D02*
X2099Y2510D01*
X2138Y2510D02*
X2143Y2510D01*
X2157Y2510D02*
X2180Y2510D01*
X2201Y2510D02*
X2223Y2510D01*
X1661Y2509D02*
X1686Y2509D01*
X1703Y2509D02*
X1728Y2509D01*
X1744Y2509D02*
X1768Y2509D01*
X1784Y2509D02*
X1791Y2509D01*
X1835Y2509D02*
X1852Y2509D01*
X1867Y2509D02*
X1871Y2509D01*
X1890Y2509D02*
X1894Y2509D01*
X1972Y2509D02*
X1977Y2509D01*
X1997Y2509D02*
X2013Y2509D01*
X2033Y2509D02*
X2037Y2509D01*
X2041Y2509D02*
X2054Y2509D01*
X2074Y2509D02*
X2078Y2509D01*
X2082Y2509D02*
X2098Y2509D01*
X2138Y2509D02*
X2142Y2509D01*
X2157Y2509D02*
X2179Y2509D01*
X2202Y2509D02*
X2222Y2509D01*
X1663Y2508D02*
X1686Y2508D01*
X1704Y2508D02*
X1727Y2508D01*
X1745Y2508D02*
X1766Y2508D01*
X1785Y2508D02*
X1790Y2508D01*
X1837Y2508D02*
X1851Y2508D01*
X1868Y2508D02*
X1870Y2508D01*
X1890Y2508D02*
X1893Y2508D01*
X1973Y2508D02*
X1976Y2508D01*
X1998Y2508D02*
X2011Y2508D01*
X2034Y2508D02*
X2036Y2508D01*
X2043Y2508D02*
X2052Y2508D01*
X2075Y2508D02*
X2077Y2508D01*
X2083Y2508D02*
X2096Y2508D01*
X2139Y2508D02*
X2142Y2508D01*
X2158Y2508D02*
X2177Y2508D01*
X2204Y2508D02*
X2220Y2508D01*
X1909Y2507D02*
X1934Y2507D01*
X1908Y2506D02*
X1935Y2506D01*
X1908Y2505D02*
X1935Y2505D01*
X1908Y2504D02*
X1935Y2504D01*
X1908Y2503D02*
X1935Y2503D01*
X1909Y2502D02*
X1934Y2502D01*
X1913Y2465D02*
X1939Y2465D01*
X1911Y2464D02*
X1940Y2464D01*
X1910Y2463D02*
X1940Y2463D01*
X1909Y2462D02*
X1941Y2462D01*
X1909Y2461D02*
X1940Y2461D01*
X1908Y2460D02*
X1940Y2460D01*
X1908Y2459D02*
X1939Y2459D01*
X1908Y2458D02*
X1914Y2458D01*
X1908Y2457D02*
X1914Y2457D01*
X1908Y2456D02*
X1914Y2456D01*
X1908Y2455D02*
X1914Y2455D01*
X1908Y2454D02*
X1914Y2454D01*
X1908Y2453D02*
X1914Y2453D01*
X1908Y2452D02*
X1914Y2452D01*
X1908Y2451D02*
X1914Y2451D01*
X1908Y2450D02*
X1914Y2450D01*
X1958Y2450D02*
X1962Y2450D01*
X1985Y2450D02*
X1988Y2450D01*
X1908Y2449D02*
X1914Y2449D01*
X1957Y2449D02*
X1962Y2449D01*
X1984Y2449D02*
X1989Y2449D01*
X1908Y2448D02*
X1914Y2448D01*
X1957Y2448D02*
X1963Y2448D01*
X1984Y2448D02*
X1989Y2448D01*
X1908Y2447D02*
X1914Y2447D01*
X1957Y2447D02*
X1963Y2447D01*
X1984Y2447D02*
X1989Y2447D01*
X1908Y2446D02*
X1914Y2446D01*
X1957Y2446D02*
X1963Y2446D01*
X1984Y2446D02*
X1989Y2446D01*
X1908Y2445D02*
X1914Y2445D01*
X1957Y2445D02*
X1963Y2445D01*
X1984Y2445D02*
X1989Y2445D01*
X1908Y2444D02*
X1914Y2444D01*
X1957Y2444D02*
X1963Y2444D01*
X1984Y2444D02*
X1989Y2444D01*
X1908Y2443D02*
X1914Y2443D01*
X1957Y2443D02*
X1963Y2443D01*
X1984Y2443D02*
X1989Y2443D01*
X1908Y2442D02*
X1936Y2442D01*
X1957Y2442D02*
X1963Y2442D01*
X1983Y2442D02*
X1989Y2442D01*
X1908Y2441D02*
X1938Y2441D01*
X1957Y2441D02*
X1963Y2441D01*
X1983Y2441D02*
X1989Y2441D01*
X1908Y2440D02*
X1939Y2440D01*
X1957Y2440D02*
X1964Y2440D01*
X1983Y2440D02*
X1989Y2440D01*
X1909Y2439D02*
X1940Y2439D01*
X1958Y2439D02*
X1964Y2439D01*
X1982Y2439D02*
X1989Y2439D01*
X1910Y2438D02*
X1940Y2438D01*
X1958Y2438D02*
X1965Y2438D01*
X1982Y2438D02*
X1988Y2438D01*
X1911Y2437D02*
X1940Y2437D01*
X1959Y2437D02*
X1965Y2437D01*
X1981Y2437D02*
X1988Y2437D01*
X1913Y2436D02*
X1941Y2436D01*
X1959Y2436D02*
X1966Y2436D01*
X1981Y2436D02*
X1987Y2436D01*
X1935Y2435D02*
X1941Y2435D01*
X1960Y2435D02*
X1966Y2435D01*
X1980Y2435D02*
X1987Y2435D01*
X1935Y2434D02*
X1941Y2434D01*
X1960Y2434D02*
X1966Y2434D01*
X1980Y2434D02*
X1986Y2434D01*
X1935Y2433D02*
X1941Y2433D01*
X1960Y2433D02*
X1967Y2433D01*
X1979Y2433D02*
X1986Y2433D01*
X1935Y2432D02*
X1941Y2432D01*
X1961Y2432D02*
X1967Y2432D01*
X1979Y2432D02*
X1985Y2432D01*
X1935Y2431D02*
X1941Y2431D01*
X1961Y2431D02*
X1968Y2431D01*
X1979Y2431D02*
X1985Y2431D01*
X1935Y2430D02*
X1941Y2430D01*
X1962Y2430D02*
X1968Y2430D01*
X1978Y2430D02*
X1985Y2430D01*
X1935Y2429D02*
X1941Y2429D01*
X1962Y2429D02*
X1969Y2429D01*
X1978Y2429D02*
X1984Y2429D01*
X1935Y2428D02*
X1941Y2428D01*
X1963Y2428D02*
X1969Y2428D01*
X1977Y2428D02*
X1984Y2428D01*
X1935Y2427D02*
X1941Y2427D01*
X1963Y2427D02*
X1969Y2427D01*
X1977Y2427D02*
X1983Y2427D01*
X1935Y2426D02*
X1941Y2426D01*
X1963Y2426D02*
X1970Y2426D01*
X1976Y2426D02*
X1983Y2426D01*
X1935Y2425D02*
X1941Y2425D01*
X1964Y2425D02*
X1970Y2425D01*
X1976Y2425D02*
X1982Y2425D01*
X1935Y2424D02*
X1941Y2424D01*
X1964Y2424D02*
X1971Y2424D01*
X1976Y2424D02*
X1982Y2424D01*
X1935Y2423D02*
X1941Y2423D01*
X1965Y2423D02*
X1971Y2423D01*
X1975Y2423D02*
X1982Y2423D01*
X1935Y2422D02*
X1941Y2422D01*
X1965Y2422D02*
X1972Y2422D01*
X1975Y2422D02*
X1981Y2422D01*
X1935Y2421D02*
X1941Y2421D01*
X1966Y2421D02*
X1972Y2421D01*
X1974Y2421D02*
X1981Y2421D01*
X1935Y2420D02*
X1941Y2420D01*
X1966Y2420D02*
X1980Y2420D01*
X1910Y2419D02*
X1941Y2419D01*
X1967Y2419D02*
X1980Y2419D01*
X1909Y2418D02*
X1941Y2418D01*
X1967Y2418D02*
X1979Y2418D01*
X1908Y2417D02*
X1941Y2417D01*
X1967Y2417D02*
X1979Y2417D01*
X1908Y2416D02*
X1941Y2416D01*
X1968Y2416D02*
X1978Y2416D01*
X1908Y2415D02*
X1941Y2415D01*
X1968Y2415D02*
X1978Y2415D01*
X1909Y2414D02*
X1941Y2414D01*
X1969Y2414D02*
X1977Y2414D01*
X1910Y2413D02*
X1941Y2413D01*
X1970Y2413D02*
X1976Y2413D01*
X1688Y2324D02*
X1715Y2324D01*
X1744Y2324D02*
X1771Y2324D01*
X1799Y2324D02*
X1823Y2324D01*
X1854Y2324D02*
X1881Y2324D01*
X1906Y2324D02*
X1907Y2324D01*
X1969Y2324D02*
X1985Y2324D01*
X2020Y2324D02*
X2044Y2324D01*
X2072Y2324D02*
X2073Y2324D01*
X2154Y2324D02*
X2158Y2324D01*
X2195Y2324D02*
X2213Y2324D01*
X1686Y2323D02*
X1718Y2323D01*
X1741Y2323D02*
X1773Y2323D01*
X1796Y2323D02*
X1826Y2323D01*
X1852Y2323D02*
X1883Y2323D01*
X1904Y2323D02*
X1908Y2323D01*
X1967Y2323D02*
X1987Y2323D01*
X2018Y2323D02*
X2047Y2323D01*
X2070Y2323D02*
X2074Y2323D01*
X2152Y2323D02*
X2160Y2323D01*
X2195Y2323D02*
X2215Y2323D01*
X1684Y2322D02*
X1718Y2322D01*
X1740Y2322D02*
X1774Y2322D01*
X1795Y2322D02*
X1827Y2322D01*
X1850Y2322D02*
X1884Y2322D01*
X1903Y2322D02*
X1909Y2322D01*
X1966Y2322D02*
X1987Y2322D01*
X2016Y2322D02*
X2048Y2322D01*
X2069Y2322D02*
X2075Y2322D01*
X2151Y2322D02*
X2161Y2322D01*
X2195Y2322D02*
X2216Y2322D01*
X1683Y2321D02*
X1719Y2321D01*
X1739Y2321D02*
X1774Y2321D01*
X1794Y2321D02*
X1828Y2321D01*
X1849Y2321D02*
X1885Y2321D01*
X1903Y2321D02*
X1910Y2321D01*
X1966Y2321D02*
X1988Y2321D01*
X2015Y2321D02*
X2049Y2321D01*
X2069Y2321D02*
X2076Y2321D01*
X2151Y2321D02*
X2161Y2321D01*
X2195Y2321D02*
X2217Y2321D01*
X1683Y2320D02*
X1719Y2320D01*
X1738Y2320D02*
X1774Y2320D01*
X1793Y2320D02*
X1828Y2320D01*
X1849Y2320D02*
X1885Y2320D01*
X1903Y2320D02*
X1911Y2320D01*
X1966Y2320D02*
X1988Y2320D01*
X2015Y2320D02*
X2050Y2320D01*
X2069Y2320D02*
X2076Y2320D01*
X2151Y2320D02*
X2161Y2320D01*
X2195Y2320D02*
X2217Y2320D01*
X1682Y2319D02*
X1719Y2319D01*
X1737Y2319D02*
X1774Y2319D01*
X1793Y2319D02*
X1829Y2319D01*
X1848Y2319D02*
X1885Y2319D01*
X1903Y2319D02*
X1911Y2319D01*
X1966Y2319D02*
X1988Y2319D01*
X2014Y2319D02*
X2050Y2319D01*
X2069Y2319D02*
X2077Y2319D01*
X2151Y2319D02*
X2161Y2319D01*
X2195Y2319D02*
X2216Y2319D01*
X1682Y2318D02*
X1718Y2318D01*
X1737Y2318D02*
X1773Y2318D01*
X1793Y2318D02*
X1829Y2318D01*
X1848Y2318D02*
X1884Y2318D01*
X1904Y2318D02*
X1912Y2318D01*
X1966Y2318D02*
X1988Y2318D01*
X2014Y2318D02*
X2051Y2318D01*
X2070Y2318D02*
X2078Y2318D01*
X2152Y2318D02*
X2161Y2318D01*
X2195Y2318D02*
X2216Y2318D01*
X1682Y2317D02*
X1717Y2317D01*
X1737Y2317D02*
X1772Y2317D01*
X1792Y2317D02*
X1829Y2317D01*
X1848Y2317D02*
X1883Y2317D01*
X1904Y2317D02*
X1912Y2317D01*
X1966Y2317D02*
X1988Y2317D01*
X2014Y2317D02*
X2051Y2317D01*
X2070Y2317D02*
X2078Y2317D01*
X2153Y2317D02*
X2161Y2317D01*
X2195Y2317D02*
X2215Y2317D01*
X1682Y2316D02*
X1688Y2316D01*
X1737Y2316D02*
X1744Y2316D01*
X1792Y2316D02*
X1799Y2316D01*
X1823Y2316D02*
X1829Y2316D01*
X1848Y2316D02*
X1854Y2316D01*
X1905Y2316D02*
X1913Y2316D01*
X1966Y2316D02*
X1973Y2316D01*
X1981Y2316D02*
X1988Y2316D01*
X2014Y2316D02*
X2020Y2316D01*
X2044Y2316D02*
X2051Y2316D01*
X2071Y2316D02*
X2079Y2316D01*
X2155Y2316D02*
X2161Y2316D01*
X2195Y2316D02*
X2202Y2316D01*
X1682Y2315D02*
X1688Y2315D01*
X1737Y2315D02*
X1744Y2315D01*
X1792Y2315D02*
X1799Y2315D01*
X1823Y2315D02*
X1829Y2315D01*
X1848Y2315D02*
X1854Y2315D01*
X1905Y2315D02*
X1913Y2315D01*
X1966Y2315D02*
X1973Y2315D01*
X1981Y2315D02*
X1988Y2315D01*
X2014Y2315D02*
X2020Y2315D01*
X2044Y2315D02*
X2051Y2315D01*
X2071Y2315D02*
X2079Y2315D01*
X2155Y2315D02*
X2161Y2315D01*
X2195Y2315D02*
X2202Y2315D01*
X1682Y2314D02*
X1688Y2314D01*
X1737Y2314D02*
X1744Y2314D01*
X1792Y2314D02*
X1799Y2314D01*
X1823Y2314D02*
X1829Y2314D01*
X1848Y2314D02*
X1854Y2314D01*
X1906Y2314D02*
X1914Y2314D01*
X1966Y2314D02*
X1973Y2314D01*
X1981Y2314D02*
X1988Y2314D01*
X2014Y2314D02*
X2020Y2314D01*
X2044Y2314D02*
X2051Y2314D01*
X2072Y2314D02*
X2080Y2314D01*
X2155Y2314D02*
X2161Y2314D01*
X2195Y2314D02*
X2202Y2314D01*
X1682Y2313D02*
X1688Y2313D01*
X1737Y2313D02*
X1744Y2313D01*
X1792Y2313D02*
X1799Y2313D01*
X1823Y2313D02*
X1829Y2313D01*
X1848Y2313D02*
X1854Y2313D01*
X1907Y2313D02*
X1915Y2313D01*
X1966Y2313D02*
X1973Y2313D01*
X1981Y2313D02*
X1988Y2313D01*
X2014Y2313D02*
X2020Y2313D01*
X2044Y2313D02*
X2051Y2313D01*
X2073Y2313D02*
X2081Y2313D01*
X2155Y2313D02*
X2161Y2313D01*
X2195Y2313D02*
X2202Y2313D01*
X1682Y2312D02*
X1688Y2312D01*
X1737Y2312D02*
X1744Y2312D01*
X1792Y2312D02*
X1799Y2312D01*
X1823Y2312D02*
X1829Y2312D01*
X1848Y2312D02*
X1854Y2312D01*
X1907Y2312D02*
X1915Y2312D01*
X1966Y2312D02*
X1973Y2312D01*
X1981Y2312D02*
X1988Y2312D01*
X2014Y2312D02*
X2020Y2312D01*
X2044Y2312D02*
X2051Y2312D01*
X2073Y2312D02*
X2081Y2312D01*
X2155Y2312D02*
X2161Y2312D01*
X2195Y2312D02*
X2202Y2312D01*
X1682Y2311D02*
X1688Y2311D01*
X1737Y2311D02*
X1744Y2311D01*
X1792Y2311D02*
X1799Y2311D01*
X1823Y2311D02*
X1829Y2311D01*
X1848Y2311D02*
X1854Y2311D01*
X1908Y2311D02*
X1916Y2311D01*
X1966Y2311D02*
X1973Y2311D01*
X1981Y2311D02*
X1988Y2311D01*
X2014Y2311D02*
X2020Y2311D01*
X2044Y2311D02*
X2051Y2311D01*
X2074Y2311D02*
X2082Y2311D01*
X2155Y2311D02*
X2161Y2311D01*
X2195Y2311D02*
X2202Y2311D01*
X1682Y2310D02*
X1688Y2310D01*
X1737Y2310D02*
X1744Y2310D01*
X1792Y2310D02*
X1799Y2310D01*
X1823Y2310D02*
X1829Y2310D01*
X1848Y2310D02*
X1854Y2310D01*
X1908Y2310D02*
X1916Y2310D01*
X1966Y2310D02*
X1973Y2310D01*
X1981Y2310D02*
X1988Y2310D01*
X2014Y2310D02*
X2020Y2310D01*
X2044Y2310D02*
X2051Y2310D01*
X2074Y2310D02*
X2082Y2310D01*
X2155Y2310D02*
X2161Y2310D01*
X2195Y2310D02*
X2202Y2310D01*
X1682Y2309D02*
X1688Y2309D01*
X1737Y2309D02*
X1744Y2309D01*
X1792Y2309D02*
X1799Y2309D01*
X1823Y2309D02*
X1829Y2309D01*
X1848Y2309D02*
X1854Y2309D01*
X1909Y2309D02*
X1917Y2309D01*
X1966Y2309D02*
X1973Y2309D01*
X1981Y2309D02*
X1988Y2309D01*
X2014Y2309D02*
X2020Y2309D01*
X2044Y2309D02*
X2051Y2309D01*
X2075Y2309D02*
X2083Y2309D01*
X2155Y2309D02*
X2161Y2309D01*
X2195Y2309D02*
X2202Y2309D01*
X1682Y2308D02*
X1688Y2308D01*
X1737Y2308D02*
X1744Y2308D01*
X1792Y2308D02*
X1799Y2308D01*
X1823Y2308D02*
X1829Y2308D01*
X1848Y2308D02*
X1854Y2308D01*
X1910Y2308D02*
X1918Y2308D01*
X1966Y2308D02*
X1973Y2308D01*
X1981Y2308D02*
X1988Y2308D01*
X2014Y2308D02*
X2020Y2308D01*
X2044Y2308D02*
X2051Y2308D01*
X2075Y2308D02*
X2083Y2308D01*
X2155Y2308D02*
X2161Y2308D01*
X2195Y2308D02*
X2202Y2308D01*
X1682Y2307D02*
X1688Y2307D01*
X1737Y2307D02*
X1744Y2307D01*
X1792Y2307D02*
X1799Y2307D01*
X1823Y2307D02*
X1829Y2307D01*
X1848Y2307D02*
X1854Y2307D01*
X1910Y2307D02*
X1918Y2307D01*
X1966Y2307D02*
X1973Y2307D01*
X1981Y2307D02*
X1988Y2307D01*
X2014Y2307D02*
X2020Y2307D01*
X2044Y2307D02*
X2051Y2307D01*
X2076Y2307D02*
X2084Y2307D01*
X2155Y2307D02*
X2161Y2307D01*
X2195Y2307D02*
X2202Y2307D01*
X1682Y2306D02*
X1688Y2306D01*
X1737Y2306D02*
X1744Y2306D01*
X1792Y2306D02*
X1799Y2306D01*
X1823Y2306D02*
X1829Y2306D01*
X1848Y2306D02*
X1854Y2306D01*
X1911Y2306D02*
X1919Y2306D01*
X1966Y2306D02*
X1973Y2306D01*
X1981Y2306D02*
X1988Y2306D01*
X2014Y2306D02*
X2020Y2306D01*
X2044Y2306D02*
X2051Y2306D01*
X2077Y2306D02*
X2085Y2306D01*
X2155Y2306D02*
X2161Y2306D01*
X2195Y2306D02*
X2202Y2306D01*
X1682Y2305D02*
X1688Y2305D01*
X1737Y2305D02*
X1744Y2305D01*
X1792Y2305D02*
X1799Y2305D01*
X1823Y2305D02*
X1829Y2305D01*
X1848Y2305D02*
X1854Y2305D01*
X1911Y2305D02*
X1919Y2305D01*
X1966Y2305D02*
X1973Y2305D01*
X1981Y2305D02*
X1988Y2305D01*
X2014Y2305D02*
X2020Y2305D01*
X2044Y2305D02*
X2051Y2305D01*
X2077Y2305D02*
X2085Y2305D01*
X2155Y2305D02*
X2161Y2305D01*
X2195Y2305D02*
X2202Y2305D01*
X1682Y2304D02*
X1688Y2304D01*
X1737Y2304D02*
X1744Y2304D01*
X1792Y2304D02*
X1799Y2304D01*
X1823Y2304D02*
X1829Y2304D01*
X1848Y2304D02*
X1854Y2304D01*
X1912Y2304D02*
X1920Y2304D01*
X1966Y2304D02*
X1973Y2304D01*
X1981Y2304D02*
X1988Y2304D01*
X2014Y2304D02*
X2020Y2304D01*
X2044Y2304D02*
X2051Y2304D01*
X2078Y2304D02*
X2086Y2304D01*
X2155Y2304D02*
X2161Y2304D01*
X2195Y2304D02*
X2202Y2304D01*
X1682Y2303D02*
X1688Y2303D01*
X1737Y2303D02*
X1744Y2303D01*
X1792Y2303D02*
X1799Y2303D01*
X1823Y2303D02*
X1829Y2303D01*
X1848Y2303D02*
X1854Y2303D01*
X1912Y2303D02*
X1920Y2303D01*
X1966Y2303D02*
X1973Y2303D01*
X1981Y2303D02*
X1988Y2303D01*
X2014Y2303D02*
X2020Y2303D01*
X2044Y2303D02*
X2051Y2303D01*
X2078Y2303D02*
X2086Y2303D01*
X2155Y2303D02*
X2161Y2303D01*
X2195Y2303D02*
X2202Y2303D01*
X1682Y2302D02*
X1688Y2302D01*
X1737Y2302D02*
X1744Y2302D01*
X1792Y2302D02*
X1799Y2302D01*
X1823Y2302D02*
X1829Y2302D01*
X1848Y2302D02*
X1854Y2302D01*
X1913Y2302D02*
X1921Y2302D01*
X1966Y2302D02*
X1973Y2302D01*
X1981Y2302D02*
X1988Y2302D01*
X2014Y2302D02*
X2020Y2302D01*
X2044Y2302D02*
X2051Y2302D01*
X2079Y2302D02*
X2087Y2302D01*
X2155Y2302D02*
X2161Y2302D01*
X2195Y2302D02*
X2202Y2302D01*
X1682Y2301D02*
X1688Y2301D01*
X1737Y2301D02*
X1744Y2301D01*
X1792Y2301D02*
X1799Y2301D01*
X1823Y2301D02*
X1829Y2301D01*
X1848Y2301D02*
X1854Y2301D01*
X1914Y2301D02*
X1922Y2301D01*
X1966Y2301D02*
X1973Y2301D01*
X1981Y2301D02*
X1988Y2301D01*
X2014Y2301D02*
X2020Y2301D01*
X2044Y2301D02*
X2051Y2301D01*
X2080Y2301D02*
X2088Y2301D01*
X2155Y2301D02*
X2161Y2301D01*
X2195Y2301D02*
X2202Y2301D01*
X1682Y2300D02*
X1688Y2300D01*
X1737Y2300D02*
X1744Y2300D01*
X1792Y2300D02*
X1799Y2300D01*
X1823Y2300D02*
X1829Y2300D01*
X1848Y2300D02*
X1854Y2300D01*
X1914Y2300D02*
X1922Y2300D01*
X1966Y2300D02*
X1973Y2300D01*
X1981Y2300D02*
X1988Y2300D01*
X2014Y2300D02*
X2020Y2300D01*
X2044Y2300D02*
X2051Y2300D01*
X2080Y2300D02*
X2088Y2300D01*
X2155Y2300D02*
X2161Y2300D01*
X2195Y2300D02*
X2202Y2300D01*
X1682Y2299D02*
X1688Y2299D01*
X1737Y2299D02*
X1744Y2299D01*
X1792Y2299D02*
X1799Y2299D01*
X1823Y2299D02*
X1829Y2299D01*
X1848Y2299D02*
X1854Y2299D01*
X1915Y2299D02*
X1923Y2299D01*
X1966Y2299D02*
X1973Y2299D01*
X1981Y2299D02*
X1988Y2299D01*
X2014Y2299D02*
X2020Y2299D01*
X2044Y2299D02*
X2051Y2299D01*
X2081Y2299D02*
X2089Y2299D01*
X2155Y2299D02*
X2161Y2299D01*
X2195Y2299D02*
X2202Y2299D01*
X1682Y2298D02*
X1712Y2298D01*
X1737Y2298D02*
X1767Y2298D01*
X1792Y2298D02*
X1799Y2298D01*
X1823Y2298D02*
X1829Y2298D01*
X1848Y2298D02*
X1878Y2298D01*
X1915Y2298D02*
X1923Y2298D01*
X1965Y2298D02*
X1989Y2298D01*
X2014Y2298D02*
X2020Y2298D01*
X2044Y2298D02*
X2051Y2298D01*
X2081Y2298D02*
X2089Y2298D01*
X2155Y2298D02*
X2161Y2298D01*
X2195Y2298D02*
X2202Y2298D01*
X1682Y2297D02*
X1715Y2297D01*
X1737Y2297D02*
X1770Y2297D01*
X1792Y2297D02*
X1799Y2297D01*
X1823Y2297D02*
X1829Y2297D01*
X1848Y2297D02*
X1881Y2297D01*
X1916Y2297D02*
X1924Y2297D01*
X1962Y2297D02*
X1992Y2297D01*
X2014Y2297D02*
X2020Y2297D01*
X2044Y2297D02*
X2051Y2297D01*
X2082Y2297D02*
X2090Y2297D01*
X2155Y2297D02*
X2161Y2297D01*
X2195Y2297D02*
X2202Y2297D01*
X1682Y2296D02*
X1716Y2296D01*
X1737Y2296D02*
X1772Y2296D01*
X1792Y2296D02*
X1799Y2296D01*
X1823Y2296D02*
X1829Y2296D01*
X1848Y2296D02*
X1882Y2296D01*
X1917Y2296D02*
X1925Y2296D01*
X1961Y2296D02*
X1993Y2296D01*
X2014Y2296D02*
X2020Y2296D01*
X2044Y2296D02*
X2051Y2296D01*
X2082Y2296D02*
X2091Y2296D01*
X2155Y2296D02*
X2161Y2296D01*
X2195Y2296D02*
X2202Y2296D01*
X1682Y2295D02*
X1717Y2295D01*
X1738Y2295D02*
X1772Y2295D01*
X1792Y2295D02*
X1799Y2295D01*
X1823Y2295D02*
X1829Y2295D01*
X1848Y2295D02*
X1883Y2295D01*
X1917Y2295D02*
X1925Y2295D01*
X1960Y2295D02*
X1994Y2295D01*
X2014Y2295D02*
X2020Y2295D01*
X2044Y2295D02*
X2051Y2295D01*
X2083Y2295D02*
X2091Y2295D01*
X2155Y2295D02*
X2161Y2295D01*
X2195Y2295D02*
X2202Y2295D01*
X1683Y2294D02*
X1718Y2294D01*
X1738Y2294D02*
X1773Y2294D01*
X1792Y2294D02*
X1799Y2294D01*
X1823Y2294D02*
X1829Y2294D01*
X1849Y2294D02*
X1884Y2294D01*
X1918Y2294D02*
X1926Y2294D01*
X1959Y2294D02*
X1994Y2294D01*
X2014Y2294D02*
X2020Y2294D01*
X2044Y2294D02*
X2051Y2294D01*
X2084Y2294D02*
X2092Y2294D01*
X2155Y2294D02*
X2161Y2294D01*
X2195Y2294D02*
X2202Y2294D01*
X1684Y2293D02*
X1718Y2293D01*
X1739Y2293D02*
X1774Y2293D01*
X1792Y2293D02*
X1799Y2293D01*
X1823Y2293D02*
X1829Y2293D01*
X1850Y2293D02*
X1884Y2293D01*
X1918Y2293D02*
X1926Y2293D01*
X1959Y2293D02*
X1995Y2293D01*
X2014Y2293D02*
X2020Y2293D01*
X2044Y2293D02*
X2051Y2293D01*
X2084Y2293D02*
X2092Y2293D01*
X2155Y2293D02*
X2161Y2293D01*
X2195Y2293D02*
X2202Y2293D01*
X1685Y2292D02*
X1719Y2292D01*
X1740Y2292D02*
X1774Y2292D01*
X1792Y2292D02*
X1799Y2292D01*
X1823Y2292D02*
X1829Y2292D01*
X1851Y2292D02*
X1885Y2292D01*
X1919Y2292D02*
X1927Y2292D01*
X1958Y2292D02*
X1995Y2292D01*
X2014Y2292D02*
X2020Y2292D01*
X2044Y2292D02*
X2051Y2292D01*
X2085Y2292D02*
X2093Y2292D01*
X2155Y2292D02*
X2161Y2292D01*
X2195Y2292D02*
X2202Y2292D01*
X1687Y2291D02*
X1719Y2291D01*
X1742Y2291D02*
X1774Y2291D01*
X1792Y2291D02*
X1799Y2291D01*
X1823Y2291D02*
X1829Y2291D01*
X1852Y2291D02*
X1885Y2291D01*
X1919Y2291D02*
X1927Y2291D01*
X1958Y2291D02*
X1995Y2291D01*
X2014Y2291D02*
X2020Y2291D01*
X2044Y2291D02*
X2051Y2291D01*
X2085Y2291D02*
X2093Y2291D01*
X2126Y2291D02*
X2161Y2291D01*
X2181Y2291D02*
X2184Y2291D01*
X2195Y2291D02*
X2202Y2291D01*
X1712Y2290D02*
X1719Y2290D01*
X1767Y2290D02*
X1774Y2290D01*
X1792Y2290D02*
X1799Y2290D01*
X1823Y2290D02*
X1829Y2290D01*
X1878Y2290D02*
X1885Y2290D01*
X1920Y2290D02*
X1928Y2290D01*
X1958Y2290D02*
X1965Y2290D01*
X1989Y2290D02*
X1995Y2290D01*
X2014Y2290D02*
X2020Y2290D01*
X2044Y2290D02*
X2051Y2290D01*
X2086Y2290D02*
X2094Y2290D01*
X2125Y2290D02*
X2161Y2290D01*
X2180Y2290D02*
X2186Y2290D01*
X2195Y2290D02*
X2202Y2290D01*
X1712Y2289D02*
X1719Y2289D01*
X1767Y2289D02*
X1774Y2289D01*
X1792Y2289D02*
X1799Y2289D01*
X1823Y2289D02*
X1829Y2289D01*
X1878Y2289D02*
X1885Y2289D01*
X1921Y2289D02*
X1929Y2289D01*
X1958Y2289D02*
X1965Y2289D01*
X1989Y2289D02*
X1995Y2289D01*
X2014Y2289D02*
X2020Y2289D01*
X2044Y2289D02*
X2051Y2289D01*
X2087Y2289D02*
X2095Y2289D01*
X2125Y2289D02*
X2161Y2289D01*
X2180Y2289D02*
X2186Y2289D01*
X2195Y2289D02*
X2202Y2289D01*
X1712Y2288D02*
X1719Y2288D01*
X1767Y2288D02*
X1774Y2288D01*
X1792Y2288D02*
X1799Y2288D01*
X1823Y2288D02*
X1829Y2288D01*
X1878Y2288D02*
X1885Y2288D01*
X1921Y2288D02*
X1929Y2288D01*
X1958Y2288D02*
X1965Y2288D01*
X1989Y2288D02*
X1995Y2288D01*
X2014Y2288D02*
X2020Y2288D01*
X2044Y2288D02*
X2051Y2288D01*
X2087Y2288D02*
X2095Y2288D01*
X2124Y2288D02*
X2161Y2288D01*
X2180Y2288D02*
X2186Y2288D01*
X2195Y2288D02*
X2202Y2288D01*
X1712Y2287D02*
X1719Y2287D01*
X1767Y2287D02*
X1774Y2287D01*
X1792Y2287D02*
X1799Y2287D01*
X1823Y2287D02*
X1829Y2287D01*
X1878Y2287D02*
X1885Y2287D01*
X1922Y2287D02*
X1930Y2287D01*
X1958Y2287D02*
X1965Y2287D01*
X1989Y2287D02*
X1995Y2287D01*
X2014Y2287D02*
X2020Y2287D01*
X2044Y2287D02*
X2051Y2287D01*
X2088Y2287D02*
X2096Y2287D01*
X2124Y2287D02*
X2161Y2287D01*
X2180Y2287D02*
X2186Y2287D01*
X2195Y2287D02*
X2202Y2287D01*
X1712Y2286D02*
X1719Y2286D01*
X1767Y2286D02*
X1774Y2286D01*
X1792Y2286D02*
X1799Y2286D01*
X1823Y2286D02*
X1829Y2286D01*
X1878Y2286D02*
X1885Y2286D01*
X1922Y2286D02*
X1930Y2286D01*
X1958Y2286D02*
X1965Y2286D01*
X1989Y2286D02*
X1995Y2286D01*
X2014Y2286D02*
X2020Y2286D01*
X2044Y2286D02*
X2051Y2286D01*
X2088Y2286D02*
X2096Y2286D01*
X2124Y2286D02*
X2161Y2286D01*
X2180Y2286D02*
X2186Y2286D01*
X2195Y2286D02*
X2202Y2286D01*
X1712Y2285D02*
X1719Y2285D01*
X1767Y2285D02*
X1774Y2285D01*
X1792Y2285D02*
X1799Y2285D01*
X1823Y2285D02*
X1829Y2285D01*
X1878Y2285D02*
X1885Y2285D01*
X1923Y2285D02*
X1931Y2285D01*
X1958Y2285D02*
X1965Y2285D01*
X1989Y2285D02*
X1995Y2285D01*
X2014Y2285D02*
X2020Y2285D01*
X2044Y2285D02*
X2051Y2285D01*
X2089Y2285D02*
X2097Y2285D01*
X2124Y2285D02*
X2161Y2285D01*
X2180Y2285D02*
X2186Y2285D01*
X2195Y2285D02*
X2202Y2285D01*
X1712Y2284D02*
X1719Y2284D01*
X1767Y2284D02*
X1774Y2284D01*
X1792Y2284D02*
X1799Y2284D01*
X1823Y2284D02*
X1829Y2284D01*
X1878Y2284D02*
X1885Y2284D01*
X1924Y2284D02*
X1932Y2284D01*
X1958Y2284D02*
X1965Y2284D01*
X1989Y2284D02*
X1995Y2284D01*
X2014Y2284D02*
X2020Y2284D01*
X2044Y2284D02*
X2051Y2284D01*
X2090Y2284D02*
X2098Y2284D01*
X2124Y2284D02*
X2161Y2284D01*
X2180Y2284D02*
X2186Y2284D01*
X2195Y2284D02*
X2202Y2284D01*
X1712Y2283D02*
X1719Y2283D01*
X1767Y2283D02*
X1774Y2283D01*
X1792Y2283D02*
X1799Y2283D01*
X1823Y2283D02*
X1829Y2283D01*
X1878Y2283D02*
X1885Y2283D01*
X1924Y2283D02*
X1932Y2283D01*
X1958Y2283D02*
X1965Y2283D01*
X1989Y2283D02*
X1995Y2283D01*
X2014Y2283D02*
X2020Y2283D01*
X2044Y2283D02*
X2051Y2283D01*
X2090Y2283D02*
X2098Y2283D01*
X2124Y2283D02*
X2131Y2283D01*
X2155Y2283D02*
X2161Y2283D01*
X2180Y2283D02*
X2186Y2283D01*
X2195Y2283D02*
X2202Y2283D01*
X1712Y2282D02*
X1719Y2282D01*
X1767Y2282D02*
X1774Y2282D01*
X1792Y2282D02*
X1799Y2282D01*
X1823Y2282D02*
X1829Y2282D01*
X1878Y2282D02*
X1885Y2282D01*
X1925Y2282D02*
X1933Y2282D01*
X1958Y2282D02*
X1965Y2282D01*
X1989Y2282D02*
X1995Y2282D01*
X2014Y2282D02*
X2020Y2282D01*
X2044Y2282D02*
X2051Y2282D01*
X2091Y2282D02*
X2099Y2282D01*
X2124Y2282D02*
X2131Y2282D01*
X2155Y2282D02*
X2161Y2282D01*
X2180Y2282D02*
X2186Y2282D01*
X2195Y2282D02*
X2202Y2282D01*
X1712Y2281D02*
X1719Y2281D01*
X1767Y2281D02*
X1774Y2281D01*
X1792Y2281D02*
X1799Y2281D01*
X1823Y2281D02*
X1829Y2281D01*
X1878Y2281D02*
X1885Y2281D01*
X1925Y2281D02*
X1933Y2281D01*
X1958Y2281D02*
X1965Y2281D01*
X1989Y2281D02*
X1995Y2281D01*
X2014Y2281D02*
X2020Y2281D01*
X2044Y2281D02*
X2051Y2281D01*
X2091Y2281D02*
X2099Y2281D01*
X2124Y2281D02*
X2131Y2281D01*
X2155Y2281D02*
X2161Y2281D01*
X2180Y2281D02*
X2186Y2281D01*
X2195Y2281D02*
X2202Y2281D01*
X1712Y2280D02*
X1719Y2280D01*
X1767Y2280D02*
X1774Y2280D01*
X1792Y2280D02*
X1799Y2280D01*
X1823Y2280D02*
X1829Y2280D01*
X1878Y2280D02*
X1885Y2280D01*
X1926Y2280D02*
X1934Y2280D01*
X1958Y2280D02*
X1965Y2280D01*
X1989Y2280D02*
X1995Y2280D01*
X2014Y2280D02*
X2020Y2280D01*
X2044Y2280D02*
X2051Y2280D01*
X2092Y2280D02*
X2100Y2280D01*
X2124Y2280D02*
X2131Y2280D01*
X2155Y2280D02*
X2161Y2280D01*
X2180Y2280D02*
X2186Y2280D01*
X2195Y2280D02*
X2202Y2280D01*
X1712Y2279D02*
X1719Y2279D01*
X1767Y2279D02*
X1774Y2279D01*
X1792Y2279D02*
X1799Y2279D01*
X1823Y2279D02*
X1829Y2279D01*
X1878Y2279D02*
X1885Y2279D01*
X1926Y2279D02*
X1934Y2279D01*
X1958Y2279D02*
X1965Y2279D01*
X1989Y2279D02*
X1995Y2279D01*
X2014Y2279D02*
X2020Y2279D01*
X2044Y2279D02*
X2051Y2279D01*
X2092Y2279D02*
X2100Y2279D01*
X2124Y2279D02*
X2131Y2279D01*
X2155Y2279D02*
X2161Y2279D01*
X2180Y2279D02*
X2186Y2279D01*
X2195Y2279D02*
X2202Y2279D01*
X1712Y2278D02*
X1719Y2278D01*
X1767Y2278D02*
X1774Y2278D01*
X1792Y2278D02*
X1799Y2278D01*
X1823Y2278D02*
X1829Y2278D01*
X1878Y2278D02*
X1885Y2278D01*
X1927Y2278D02*
X1935Y2278D01*
X1958Y2278D02*
X1965Y2278D01*
X1989Y2278D02*
X1995Y2278D01*
X2014Y2278D02*
X2020Y2278D01*
X2044Y2278D02*
X2051Y2278D01*
X2093Y2278D02*
X2101Y2278D01*
X2124Y2278D02*
X2131Y2278D01*
X2155Y2278D02*
X2161Y2278D01*
X2180Y2278D02*
X2186Y2278D01*
X2195Y2278D02*
X2202Y2278D01*
X1712Y2277D02*
X1719Y2277D01*
X1767Y2277D02*
X1774Y2277D01*
X1792Y2277D02*
X1799Y2277D01*
X1823Y2277D02*
X1829Y2277D01*
X1878Y2277D02*
X1885Y2277D01*
X1928Y2277D02*
X1936Y2277D01*
X1958Y2277D02*
X1965Y2277D01*
X1989Y2277D02*
X1995Y2277D01*
X2014Y2277D02*
X2020Y2277D01*
X2044Y2277D02*
X2051Y2277D01*
X2094Y2277D02*
X2102Y2277D01*
X2124Y2277D02*
X2131Y2277D01*
X2155Y2277D02*
X2161Y2277D01*
X2180Y2277D02*
X2186Y2277D01*
X2195Y2277D02*
X2202Y2277D01*
X1712Y2276D02*
X1719Y2276D01*
X1767Y2276D02*
X1774Y2276D01*
X1792Y2276D02*
X1799Y2276D01*
X1823Y2276D02*
X1829Y2276D01*
X1878Y2276D02*
X1885Y2276D01*
X1928Y2276D02*
X1936Y2276D01*
X1958Y2276D02*
X1965Y2276D01*
X1989Y2276D02*
X1995Y2276D01*
X2014Y2276D02*
X2020Y2276D01*
X2044Y2276D02*
X2051Y2276D01*
X2094Y2276D02*
X2102Y2276D01*
X2124Y2276D02*
X2131Y2276D01*
X2155Y2276D02*
X2161Y2276D01*
X2180Y2276D02*
X2186Y2276D01*
X2195Y2276D02*
X2202Y2276D01*
X1712Y2275D02*
X1719Y2275D01*
X1767Y2275D02*
X1774Y2275D01*
X1792Y2275D02*
X1799Y2275D01*
X1823Y2275D02*
X1829Y2275D01*
X1878Y2275D02*
X1885Y2275D01*
X1929Y2275D02*
X1937Y2275D01*
X1958Y2275D02*
X1965Y2275D01*
X1989Y2275D02*
X1995Y2275D01*
X2014Y2275D02*
X2020Y2275D01*
X2044Y2275D02*
X2051Y2275D01*
X2095Y2275D02*
X2103Y2275D01*
X2124Y2275D02*
X2131Y2275D01*
X2155Y2275D02*
X2161Y2275D01*
X2180Y2275D02*
X2186Y2275D01*
X2195Y2275D02*
X2202Y2275D01*
X1712Y2274D02*
X1719Y2274D01*
X1767Y2274D02*
X1774Y2274D01*
X1792Y2274D02*
X1799Y2274D01*
X1823Y2274D02*
X1829Y2274D01*
X1878Y2274D02*
X1885Y2274D01*
X1929Y2274D02*
X1937Y2274D01*
X1958Y2274D02*
X1965Y2274D01*
X1989Y2274D02*
X1995Y2274D01*
X2014Y2274D02*
X2020Y2274D01*
X2044Y2274D02*
X2051Y2274D01*
X2095Y2274D02*
X2103Y2274D01*
X2124Y2274D02*
X2131Y2274D01*
X2155Y2274D02*
X2161Y2274D01*
X2180Y2274D02*
X2186Y2274D01*
X2195Y2274D02*
X2202Y2274D01*
X1712Y2273D02*
X1719Y2273D01*
X1767Y2273D02*
X1774Y2273D01*
X1792Y2273D02*
X1799Y2273D01*
X1823Y2273D02*
X1829Y2273D01*
X1878Y2273D02*
X1885Y2273D01*
X1930Y2273D02*
X1938Y2273D01*
X1958Y2273D02*
X1965Y2273D01*
X1989Y2273D02*
X1995Y2273D01*
X2014Y2273D02*
X2020Y2273D01*
X2044Y2273D02*
X2051Y2273D01*
X2096Y2273D02*
X2104Y2273D01*
X2124Y2273D02*
X2131Y2273D01*
X2155Y2273D02*
X2161Y2273D01*
X2180Y2273D02*
X2186Y2273D01*
X2195Y2273D02*
X2202Y2273D01*
X1685Y2272D02*
X1719Y2272D01*
X1740Y2272D02*
X1774Y2272D01*
X1792Y2272D02*
X1829Y2272D01*
X1851Y2272D02*
X1885Y2272D01*
X1931Y2272D02*
X1939Y2272D01*
X1958Y2272D02*
X1995Y2272D01*
X2014Y2272D02*
X2051Y2272D01*
X2097Y2272D02*
X2105Y2272D01*
X2124Y2272D02*
X2161Y2272D01*
X2180Y2272D02*
X2213Y2272D01*
X1683Y2271D02*
X1719Y2271D01*
X1738Y2271D02*
X1774Y2271D01*
X1792Y2271D02*
X1829Y2271D01*
X1849Y2271D02*
X1885Y2271D01*
X1931Y2271D02*
X1939Y2271D01*
X1958Y2271D02*
X1995Y2271D01*
X2014Y2271D02*
X2051Y2271D01*
X2097Y2271D02*
X2105Y2271D01*
X2124Y2271D02*
X2161Y2271D01*
X2180Y2271D02*
X2215Y2271D01*
X1682Y2270D02*
X1719Y2270D01*
X1737Y2270D02*
X1774Y2270D01*
X1793Y2270D02*
X1829Y2270D01*
X1848Y2270D02*
X1885Y2270D01*
X1932Y2270D02*
X1940Y2270D01*
X1959Y2270D02*
X1995Y2270D01*
X2014Y2270D02*
X2050Y2270D01*
X2098Y2270D02*
X2106Y2270D01*
X2124Y2270D02*
X2161Y2270D01*
X2180Y2270D02*
X2216Y2270D01*
X1682Y2269D02*
X1719Y2269D01*
X1737Y2269D02*
X1774Y2269D01*
X1793Y2269D02*
X1829Y2269D01*
X1848Y2269D02*
X1885Y2269D01*
X1932Y2269D02*
X1940Y2269D01*
X1959Y2269D02*
X1995Y2269D01*
X2014Y2269D02*
X2050Y2269D01*
X2098Y2269D02*
X2106Y2269D01*
X2124Y2269D02*
X2161Y2269D01*
X2180Y2269D02*
X2217Y2269D01*
X1682Y2268D02*
X1719Y2268D01*
X1737Y2268D02*
X1774Y2268D01*
X1794Y2268D02*
X1828Y2268D01*
X1848Y2268D02*
X1885Y2268D01*
X1933Y2268D02*
X1940Y2268D01*
X1960Y2268D02*
X1994Y2268D01*
X2015Y2268D02*
X2049Y2268D01*
X2099Y2268D02*
X2106Y2268D01*
X2124Y2268D02*
X2161Y2268D01*
X2180Y2268D02*
X2217Y2268D01*
X1682Y2267D02*
X1719Y2267D01*
X1737Y2267D02*
X1774Y2267D01*
X1794Y2267D02*
X1827Y2267D01*
X1848Y2267D02*
X1885Y2267D01*
X1933Y2267D02*
X1940Y2267D01*
X1960Y2267D02*
X1993Y2267D01*
X2016Y2267D02*
X2049Y2267D01*
X2099Y2267D02*
X2106Y2267D01*
X2125Y2267D02*
X2161Y2267D01*
X2180Y2267D02*
X2216Y2267D01*
X1683Y2266D02*
X1719Y2266D01*
X1738Y2266D02*
X1774Y2266D01*
X1795Y2266D02*
X1826Y2266D01*
X1848Y2266D02*
X1885Y2266D01*
X1934Y2266D02*
X1939Y2266D01*
X1961Y2266D02*
X1992Y2266D01*
X2017Y2266D02*
X2048Y2266D01*
X2100Y2266D02*
X2105Y2266D01*
X2125Y2266D02*
X2161Y2266D01*
X2180Y2266D02*
X2216Y2266D01*
X1684Y2265D02*
X1719Y2265D01*
X1739Y2265D02*
X1774Y2265D01*
X1797Y2265D02*
X1825Y2265D01*
X1850Y2265D02*
X1885Y2265D01*
X1935Y2265D02*
X1938Y2265D01*
X1963Y2265D02*
X1991Y2265D01*
X2018Y2265D02*
X2046Y2265D01*
X2101Y2265D02*
X2104Y2265D01*
X2126Y2265D02*
X2159Y2265D01*
X2182Y2265D02*
X2215Y2265D01*
X214Y1518D02*
X286Y1518D01*
X214Y1517D02*
X287Y1517D01*
X214Y1516D02*
X287Y1516D01*
X214Y1515D02*
X287Y1515D01*
X214Y1514D02*
X287Y1514D01*
X214Y1513D02*
X287Y1513D01*
X214Y1512D02*
X287Y1512D01*
X214Y1511D02*
X287Y1511D01*
X214Y1510D02*
X287Y1510D01*
X214Y1509D02*
X287Y1509D01*
X214Y1508D02*
X287Y1508D01*
X214Y1507D02*
X287Y1507D01*
X214Y1506D02*
X287Y1506D01*
X214Y1505D02*
X287Y1505D01*
X214Y1504D02*
X287Y1504D01*
X214Y1503D02*
X287Y1503D01*
X214Y1502D02*
X287Y1502D01*
X214Y1501D02*
X246Y1501D01*
X254Y1501D02*
X287Y1501D01*
X214Y1500D02*
X243Y1500D01*
X258Y1500D02*
X287Y1500D01*
X214Y1499D02*
X240Y1499D01*
X260Y1499D02*
X287Y1499D01*
X214Y1498D02*
X239Y1498D01*
X262Y1498D02*
X287Y1498D01*
X214Y1497D02*
X237Y1497D01*
X263Y1497D02*
X287Y1497D01*
X214Y1496D02*
X236Y1496D01*
X264Y1496D02*
X287Y1496D01*
X214Y1495D02*
X235Y1495D01*
X265Y1495D02*
X287Y1495D01*
X214Y1494D02*
X234Y1494D01*
X266Y1494D02*
X287Y1494D01*
X214Y1493D02*
X233Y1493D01*
X267Y1493D02*
X287Y1493D01*
X214Y1492D02*
X233Y1492D01*
X267Y1492D02*
X287Y1492D01*
X214Y1491D02*
X232Y1491D01*
X268Y1491D02*
X287Y1491D01*
X214Y1490D02*
X232Y1490D01*
X268Y1490D02*
X287Y1490D01*
X214Y1489D02*
X231Y1489D01*
X269Y1489D02*
X287Y1489D01*
X214Y1488D02*
X231Y1488D01*
X269Y1488D02*
X287Y1488D01*
X214Y1487D02*
X230Y1487D01*
X270Y1487D02*
X287Y1487D01*
X214Y1486D02*
X230Y1486D01*
X270Y1486D02*
X287Y1486D01*
X214Y1485D02*
X230Y1485D01*
X270Y1485D02*
X287Y1485D01*
X214Y1484D02*
X230Y1484D01*
X270Y1484D02*
X287Y1484D01*
X214Y1483D02*
X230Y1483D01*
X270Y1483D02*
X287Y1483D01*
X214Y1482D02*
X230Y1482D01*
X270Y1482D02*
X287Y1482D01*
X214Y1481D02*
X230Y1481D01*
X271Y1481D02*
X287Y1481D01*
X214Y1480D02*
X230Y1480D01*
X270Y1480D02*
X287Y1480D01*
X214Y1479D02*
X230Y1479D01*
X270Y1479D02*
X287Y1479D01*
X214Y1478D02*
X230Y1478D01*
X270Y1478D02*
X287Y1478D01*
X214Y1477D02*
X230Y1477D01*
X270Y1477D02*
X287Y1477D01*
X214Y1476D02*
X230Y1476D01*
X270Y1476D02*
X287Y1476D01*
X214Y1475D02*
X231Y1475D01*
X269Y1475D02*
X287Y1475D01*
X214Y1474D02*
X231Y1474D01*
X269Y1474D02*
X287Y1474D01*
X214Y1473D02*
X231Y1473D01*
X269Y1473D02*
X287Y1473D01*
X214Y1472D02*
X232Y1472D01*
X268Y1472D02*
X287Y1472D01*
X214Y1471D02*
X233Y1471D01*
X268Y1471D02*
X287Y1471D01*
X214Y1470D02*
X233Y1470D01*
X267Y1470D02*
X287Y1470D01*
X214Y1469D02*
X234Y1469D01*
X266Y1469D02*
X287Y1469D01*
X214Y1468D02*
X235Y1468D01*
X265Y1468D02*
X287Y1468D01*
X214Y1467D02*
X236Y1467D01*
X264Y1467D02*
X287Y1467D01*
X214Y1466D02*
X237Y1466D01*
X263Y1466D02*
X287Y1466D01*
X214Y1465D02*
X238Y1465D01*
X262Y1465D02*
X287Y1465D01*
X214Y1464D02*
X240Y1464D01*
X260Y1464D02*
X287Y1464D01*
X214Y1463D02*
X242Y1463D01*
X259Y1463D02*
X287Y1463D01*
X214Y1462D02*
X245Y1462D01*
X255Y1462D02*
X287Y1462D01*
X214Y1461D02*
X287Y1461D01*
X214Y1460D02*
X287Y1460D01*
X214Y1459D02*
X287Y1459D01*
X214Y1458D02*
X287Y1458D01*
X214Y1457D02*
X287Y1457D01*
X214Y1456D02*
X287Y1456D01*
X214Y1455D02*
X287Y1455D01*
X214Y1454D02*
X287Y1454D01*
X214Y1453D02*
X287Y1453D01*
X214Y1452D02*
X287Y1452D01*
X214Y1451D02*
X287Y1451D01*
X214Y1450D02*
X287Y1450D01*
X214Y1449D02*
X287Y1449D01*
X214Y1448D02*
X287Y1448D01*
X214Y1447D02*
X287Y1447D01*
X214Y1446D02*
X287Y1446D01*
X214Y1445D02*
X287Y1445D01*
D02*
G04 End of Copper0*
M02*