G04 MADE WITH FRITZING*
G04 WWW.FRITZING.ORG*
G04 DOUBLE SIDED*
G04 HOLES PLATED*
G04 CONTOUR ON CENTER OF CONTOUR VECTOR*
%ASAXBY*%
%FSLAX23Y23*%
%MOIN*%
%OFA0B0*%
%SFA1.0B1.0*%
%ADD10C,0.088000*%
%ADD11C,0.085000*%
%ADD12C,0.080000*%
%ADD13C,0.084000*%
%ADD14C,0.089370*%
%ADD15R,0.085000X0.085000*%
%ADD16R,0.079972X0.080000*%
%ADD17R,0.001000X0.001000*%
%LNMASK1*%
G90*
G70*
G54D10*
X1501Y2280D03*
X1501Y2380D03*
G54D11*
X901Y2430D03*
X1201Y2430D03*
X701Y1580D03*
X1001Y1580D03*
X701Y1480D03*
X1001Y1480D03*
X701Y1380D03*
X1001Y1380D03*
X701Y1280D03*
X1001Y1280D03*
G54D10*
X501Y980D03*
X501Y880D03*
X601Y1180D03*
X601Y1280D03*
G54D11*
X501Y1980D03*
X501Y2280D03*
X601Y1980D03*
X601Y2280D03*
X701Y1980D03*
X701Y2280D03*
X801Y1980D03*
X801Y2280D03*
G54D10*
X601Y1580D03*
X601Y1680D03*
X501Y1280D03*
X501Y1180D03*
X901Y2330D03*
X1001Y2330D03*
X1301Y1480D03*
X1301Y1580D03*
X2201Y980D03*
X2201Y880D03*
X1301Y80D03*
X1301Y180D03*
X1301Y280D03*
X1301Y380D03*
G54D11*
X845Y579D03*
X1151Y580D03*
X845Y479D03*
X1151Y480D03*
X901Y1980D03*
X901Y2230D03*
X701Y1680D03*
X1351Y1680D03*
X995Y1979D03*
X1001Y2230D03*
X1495Y1779D03*
X1495Y1979D03*
G54D12*
X351Y980D03*
X351Y880D03*
G54D11*
X251Y980D03*
X251Y580D03*
G54D13*
X251Y1480D03*
X251Y1580D03*
X251Y1680D03*
X251Y1480D03*
X251Y1580D03*
X251Y1680D03*
G54D11*
X151Y1330D03*
X151Y930D03*
G54D10*
X2201Y280D03*
X1401Y1880D03*
X1401Y1980D03*
X1401Y2080D03*
X1401Y2180D03*
X1401Y2280D03*
X1401Y2380D03*
G54D12*
X1451Y1580D03*
X1451Y1480D03*
X1451Y1380D03*
X1451Y1280D03*
X1451Y1180D03*
X1451Y1080D03*
X1451Y980D03*
X1451Y880D03*
X1451Y780D03*
X1451Y680D03*
X1451Y580D03*
X1451Y480D03*
X1451Y380D03*
X1451Y280D03*
X1451Y180D03*
X2051Y1580D03*
X2051Y1480D03*
X2051Y1380D03*
X2051Y1280D03*
X2051Y1180D03*
X2051Y1080D03*
X2051Y980D03*
X2051Y880D03*
X2051Y780D03*
X2051Y680D03*
X2051Y580D03*
X2051Y480D03*
X2051Y380D03*
X2051Y280D03*
X2051Y180D03*
G54D14*
X1251Y480D03*
X1251Y580D03*
X1251Y680D03*
X1251Y780D03*
X1251Y880D03*
X1251Y980D03*
X1251Y1080D03*
X651Y180D03*
X651Y80D03*
X2201Y1430D03*
X2201Y1330D03*
G54D15*
X701Y1580D03*
X501Y1980D03*
G54D16*
X1451Y1580D03*
G54D17*
X209Y1523D02*
X291Y1523D01*
X209Y1522D02*
X292Y1522D01*
X209Y1521D02*
X292Y1521D01*
X209Y1520D02*
X292Y1520D01*
X209Y1519D02*
X292Y1519D01*
X209Y1518D02*
X292Y1518D01*
X209Y1517D02*
X292Y1517D01*
X209Y1516D02*
X292Y1516D01*
X209Y1515D02*
X292Y1515D01*
X209Y1514D02*
X292Y1514D01*
X209Y1513D02*
X292Y1513D01*
X209Y1512D02*
X292Y1512D01*
X209Y1511D02*
X292Y1511D01*
X209Y1510D02*
X292Y1510D01*
X209Y1509D02*
X292Y1509D01*
X209Y1508D02*
X292Y1508D01*
X209Y1507D02*
X292Y1507D01*
X209Y1506D02*
X292Y1506D01*
X209Y1505D02*
X292Y1505D01*
X209Y1504D02*
X292Y1504D01*
X209Y1503D02*
X292Y1503D01*
X209Y1502D02*
X292Y1502D01*
X209Y1501D02*
X292Y1501D01*
X209Y1500D02*
X292Y1500D01*
X209Y1499D02*
X292Y1499D01*
X209Y1498D02*
X292Y1498D01*
X209Y1497D02*
X292Y1497D01*
X209Y1496D02*
X246Y1496D01*
X254Y1496D02*
X292Y1496D01*
X209Y1495D02*
X243Y1495D01*
X257Y1495D02*
X292Y1495D01*
X209Y1494D02*
X242Y1494D01*
X259Y1494D02*
X292Y1494D01*
X209Y1493D02*
X240Y1493D01*
X260Y1493D02*
X292Y1493D01*
X209Y1492D02*
X239Y1492D01*
X261Y1492D02*
X292Y1492D01*
X209Y1491D02*
X238Y1491D01*
X262Y1491D02*
X292Y1491D01*
X209Y1490D02*
X237Y1490D01*
X263Y1490D02*
X292Y1490D01*
X209Y1489D02*
X237Y1489D01*
X263Y1489D02*
X292Y1489D01*
X209Y1488D02*
X236Y1488D01*
X264Y1488D02*
X292Y1488D01*
X209Y1487D02*
X236Y1487D01*
X265Y1487D02*
X292Y1487D01*
X209Y1486D02*
X235Y1486D01*
X265Y1486D02*
X292Y1486D01*
X209Y1485D02*
X235Y1485D01*
X265Y1485D02*
X292Y1485D01*
X209Y1484D02*
X235Y1484D01*
X265Y1484D02*
X292Y1484D01*
X209Y1483D02*
X235Y1483D01*
X265Y1483D02*
X292Y1483D01*
X209Y1482D02*
X235Y1482D01*
X265Y1482D02*
X292Y1482D01*
X209Y1481D02*
X235Y1481D01*
X266Y1481D02*
X292Y1481D01*
X209Y1480D02*
X235Y1480D01*
X265Y1480D02*
X292Y1480D01*
X209Y1479D02*
X235Y1479D01*
X265Y1479D02*
X292Y1479D01*
X209Y1478D02*
X235Y1478D01*
X265Y1478D02*
X292Y1478D01*
X209Y1477D02*
X235Y1477D01*
X265Y1477D02*
X292Y1477D01*
X209Y1476D02*
X235Y1476D01*
X265Y1476D02*
X292Y1476D01*
X209Y1475D02*
X236Y1475D01*
X264Y1475D02*
X292Y1475D01*
X209Y1474D02*
X236Y1474D01*
X264Y1474D02*
X292Y1474D01*
X209Y1473D02*
X237Y1473D01*
X263Y1473D02*
X292Y1473D01*
X209Y1472D02*
X238Y1472D01*
X262Y1472D02*
X292Y1472D01*
X209Y1471D02*
X239Y1471D01*
X261Y1471D02*
X292Y1471D01*
X209Y1470D02*
X240Y1470D01*
X260Y1470D02*
X292Y1470D01*
X209Y1469D02*
X241Y1469D01*
X259Y1469D02*
X292Y1469D01*
X209Y1468D02*
X243Y1468D01*
X257Y1468D02*
X292Y1468D01*
X209Y1467D02*
X245Y1467D01*
X255Y1467D02*
X292Y1467D01*
X209Y1466D02*
X292Y1466D01*
X209Y1465D02*
X292Y1465D01*
X209Y1464D02*
X292Y1464D01*
X209Y1463D02*
X292Y1463D01*
X209Y1462D02*
X292Y1462D01*
X209Y1461D02*
X292Y1461D01*
X209Y1460D02*
X292Y1460D01*
X209Y1459D02*
X292Y1459D01*
X209Y1458D02*
X292Y1458D01*
X209Y1457D02*
X292Y1457D01*
X209Y1456D02*
X292Y1456D01*
X209Y1455D02*
X292Y1455D01*
X209Y1454D02*
X292Y1454D01*
X209Y1453D02*
X292Y1453D01*
X209Y1452D02*
X292Y1452D01*
X209Y1451D02*
X292Y1451D01*
X209Y1450D02*
X292Y1450D01*
X209Y1449D02*
X292Y1449D01*
X209Y1448D02*
X292Y1448D01*
X209Y1447D02*
X292Y1447D01*
X209Y1446D02*
X292Y1446D01*
X209Y1445D02*
X292Y1445D01*
X209Y1444D02*
X292Y1444D01*
X209Y1443D02*
X292Y1443D01*
X209Y1442D02*
X292Y1442D01*
X209Y1441D02*
X292Y1441D01*
X209Y1440D02*
X292Y1440D01*
D02*
G04 End of Mask1*
M02*