; NON-PLATED HOLES START AT T1
; THROUGH (PLATED) HOLES START AT T100
M48
INCH
T100C0.030000
T101C0.039370
T102C0.038000
T103C0.040000
T104C0.036000
T105C0.035000
%
T100
X003506Y008802
X003506Y009804
T101
X012506Y008802
X006506Y000802
X012506Y009802
X006506Y001802
X012506Y004802
X012506Y005802
X022006Y013302
X012506Y006802
X022006Y014302
X012506Y010802
X012506Y007802
T102
X013006Y002802
X006006Y016802
X014006Y021802
X022006Y008802
X005006Y009802
X013006Y014802
X015006Y022802
X009006Y023302
X022006Y002802
X014006Y019802
X013006Y001802
X014006Y023802
X006006Y015802
X014006Y020802
X006006Y012802
X005006Y008802
X005006Y012802
X013006Y003802
X014006Y018802
X013006Y000802
X014006Y022802
X022006Y009802
X013006Y015802
X010006Y023302
X015006Y023802
X006006Y011802
X005006Y011802
T103
X002506Y016802
X002506Y014802
X002506Y015802
T104
X014506Y002802
X020506Y014802
X020506Y007802
X020506Y011802
X014506Y014802
X020506Y004802
X014506Y007802
X014506Y011802
X020506Y001802
X014506Y004802
X014506Y001802
X020506Y009802
X020506Y013802
X020506Y006802
X014506Y009802
X020506Y010802
X014506Y013802
X020506Y003802
X014506Y006802
X014506Y010802
X014506Y003802
X020506Y015802
X020506Y008802
X020506Y012802
X014506Y015802
X020506Y005802
X014506Y008802
X014506Y012802
X020506Y002802
X014506Y005802
T105
X002506Y009802
X014954Y019786
X010006Y013802
X007006Y016802
X006006Y022802
X011506Y004802
X014954Y017786
X007006Y022802
X005006Y022802
X007006Y014802
X008006Y022802
X006006Y019802
X001506Y009302
X009006Y019802
X007006Y019802
X005006Y019802
X009006Y024302
X008006Y019802
X002506Y005802
X008454Y004786
X007006Y012802
X010006Y014802
X009006Y022302
X012006Y024302
X011506Y005802
X001506Y013302
X010006Y012802
X007006Y015802
X010006Y022302
X013506Y016802
X008454Y005786
X009954Y019786
X007006Y013802
X010006Y015802
T00
M30
