<?xml version='1.0' encoding='UTF-8' standalone='no'?>
<!-- Created with Fritzing (http://www.fritzing.org/) -->
<svg xmlns="http://www.w3.org/2000/svg" viewBox="0 0 283.465 141.732" version="1.2" xmlns:svg="http://www.w3.org/2000/svg" x="0in" height="1.9685in" baseProfile="tiny" width="3.93701in"  y="0in">
 <g transform="matrix(-1, 0, 0, 1, 283.465, 0)">
  <g partID="57572">
   <g id="silkscreen">
    <rect stroke="black" stroke-width="0.576" fill="none" x="0.288" height="141.156" width="282.889" y="0.288"/>
   </g>
  </g>
  <g partID="57570">
   <g id="board">
    <rect id="boardoutline" fill-opacity="0.5" stroke="black" stroke-width="0.5" fill="none" x="0.288" height="141.156" width="282.889" y="0.288"/>
   </g>
  </g>
  <g id="partLabel" partID="854653760">
   <g transform="translate(189.828,75.291)">
    <g transform="matrix(0,1,1,0,0,0)">
     <g id="silkscreenLabel" fill-opacity="1" stroke="none" font-family="'OCRA'" fill="#000000" font-size="5" font-style="normal" font-weight="normal">
      <text x="0" y="3.75">Jumper2</text>
     </g>
    </g>
   </g>
  </g>
  <g partID="854646792">
   <g transform="translate(80.2282,22.587)">
    <g id="silkscreen">
     <line stroke="black" stroke-width="1.512" stroke-linecap="round" y2="7.452" y1="38.052" x2="4.752" x1="4.752"/>
    </g>
   </g>
  </g>
  <g partID="854653762">
   <g transform="translate(195.428,44.187)">
    <g id="silkscreen">
     <line stroke="black" stroke-width="1.512" stroke-linecap="round" y2="7.452" y1="23.652" x2="4.752" x1="4.752"/>
    </g>
   </g>
  </g>
  <g partID="57572">
   <g id="silkscreen">
    <rect stroke="black" stroke-width="0.576" fill="none" x="0.288" height="141.156" width="282.889" y="0.288"/>
   </g>
  </g>
  <g partID="57711">
   <g transform="translate(23.7802,2.1388)">
    <g id="silkscreen">
     <path stroke="black" stroke-width="0.576" fill="none" d="M0.288,122.136l49.824,0L50.112,0.288L0.288,0.288L0.288,122.136"/>
     <g>
      <title>element:J1</title>
      <g>
       <title>package:HEAD15-NOSS</title>
      </g>
     </g>
     <g>
      <title>element:J2</title>
      <g>
       <title>package:HEAD15-NOSS-1</title>
      </g>
     </g>
     <g>
      <title>element:U2</title>
      <g>
       <title>package:SSOP28</title>
      </g>
     </g>
     <g>
      <title>element:U3</title>
      <g>
       <title>package:SOT223</title>
      </g>
     </g>
    </g>
   </g>
  </g>
  <g partID="854590191">
   <g transform="translate(101.54,7.89896)">
    <g id="silkscreen">
     <line stroke="black" stroke-width="0.72" y2="51.84" x2="1.44" y1="1.44" x1="1.44"/>
     <line stroke="black" stroke-width="0.72" y2="51.84" x2="8.64" y1="51.84" x1="1.44"/>
     <line stroke="black" stroke-width="0.72" y2="1.44" x2="8.64" y1="51.84" x1="8.64"/>
     <line stroke="black" stroke-width="0.72" y2="1.44" x2="1.44" y1="1.44" x1="8.64"/>
     <line stroke="black" stroke-width="0.36" y2="1.44" x2="3.96" y1="3.96" x1="1.44"/>
     <!-- 120 -->
    </g>
   </g>
  </g>
  <g partID="854627181">
   <g transform="translate(216.74,72.699)">
    <g id="silkscreen">
     <line stroke="black" stroke-width="0.72" y2="15.84" x2="1.44" y1="1.44" x1="1.44"/>
     <line stroke="black" stroke-width="0.72" y2="15.84" x2="8.64" y1="15.84" x1="1.44"/>
     <line stroke="black" stroke-width="0.72" y2="1.44" x2="8.64" y1="15.84" x1="8.64"/>
     <line stroke="black" stroke-width="0.72" y2="1.44" x2="1.44" y1="1.44" x1="8.64"/>
     <line stroke="black" stroke-width="0.36" y2="1.44" x2="3.96" y1="3.96" x1="1.44"/>
     <!-- 120 -->
    </g>
   </g>
  </g>
  <g partID="854618201">
   <g transform="translate(190.82,25.179)">
    <g transform="matrix(-1,0,0,-1,0,0)">
     <g id="silkscreen">
      <line stroke="black" stroke-width="0.72" y2="15.84" x2="1.44" y1="1.44" x1="1.44"/>
      <line stroke="black" stroke-width="0.72" y2="15.84" x2="8.64" y1="15.84" x1="1.44"/>
      <line stroke="black" stroke-width="0.72" y2="1.44" x2="8.64" y1="15.84" x1="8.64"/>
      <line stroke="black" stroke-width="0.72" y2="1.44" x2="1.44" y1="1.44" x1="8.64"/>
      <line stroke="black" stroke-width="0.36" y2="1.44" x2="3.96" y1="3.96" x1="1.44"/>
      <!-- 120 -->
     </g>
    </g>
   </g>
  </g>
  <g partID="854588351">
   <g transform="translate(259.94,15.099)">
    <g id="silkscreen">
     <line stroke="black" stroke-width="0.72" y2="30.24" x2="1.44" y1="1.44" x1="1.44"/>
     <line stroke="black" stroke-width="0.72" y2="30.24" x2="8.64" y1="30.24" x1="1.44"/>
     <line stroke="black" stroke-width="0.72" y2="1.44" x2="8.64" y1="30.24" x1="8.64"/>
     <line stroke="black" stroke-width="0.72" y2="1.44" x2="1.44" y1="1.44" x1="8.64"/>
     <line stroke="black" stroke-width="0.36" y2="1.44" x2="3.96" y1="3.96" x1="1.44"/>
     <!-- 120 -->
    </g>
   </g>
  </g>
  <g partID="854102031">
   <g transform="translate(203.06,95.019)">
    <g transform="matrix(-1,0,0,-1,0,0)">
     <g id="silkscreen">
      <g transform="matrix(1, 0, 0, 1, -1.43333, -1.16)">
       <path id="path2830" stroke-width="0.576" stroke="black" fill="none" d="m6.65907,2.30036a1.84667,1.58,0,0,1,2.51037,0.001464" style="stroke-linecap:round;stroke-linejoin:round;stroke-miterlimit:4;stroke-dasharray:none" stroke-opacity="1"/>
      </g>
      <g transform="matrix(-1, 0, 0, -1, 14.3952, 6.92)">
       <path id="path2830-1" stroke-width="0.576" stroke="black" fill="none" d="m6.65907,2.30036a1.84667,1.58,0,0,1,2.51037,0.001464" style="stroke-linecap:round;stroke-linejoin:round;stroke-miterlimit:4;stroke-dasharray:none" stroke-opacity="1"/>
      </g>
     </g>
    </g>
   </g>
  </g>
  <g partID="854102061">
   <g transform="translate(182.684,80.439)">
    <g transform="matrix(0,-1,1,0,0,0)">
     <g id="silkscreen">
      <line stroke="black" stroke-width="0.72" y2="3.096" y1="3.096" x2="10.584" x1="5.4"/>
      <line stroke="black" stroke-width="0.72" y2="3.096" y1="3.096" x2="28.8" x1="24.984"/>
      <line stroke="black" stroke-width="0.72" y2="0.72" y1="0.72" x2="24.984" x1="10.584"/>
      <line stroke="black" stroke-width="0.72" y2="5.472" y1="0.72" x2="24.984" x1="24.984"/>
      <line stroke="black" stroke-width="0.72" y2="5.472" y1="5.472" x2="10.584" x1="24.984"/>
      <line stroke="black" stroke-width="0.72" y2="0.72" y1="5.472" x2="10.584" x1="10.584"/>
     </g>
    </g>
   </g>
  </g>
  <g partID="854574951">
   <g transform="translate(203.06,37.419)">
    <g id="silkscreen" gorn="0.2">
     <line stroke="black" stroke-width="0.72" y2="29.52" y1="0.72" x2="0.72" x1="0.72"/>
     <line stroke="black" stroke-width="0.72" y2="29.52" y1="29.52" x2="29.52" x1="0.72"/>
     <line stroke="black" stroke-width="0.72" y2="0.72" y1="29.52" x2="29.52" x1="29.52"/>
     <line stroke="black" stroke-width="0.72" y2="0.72" y1="0.72" x2="11.52" x1="0.72"/>
     <line stroke="black" stroke-width="0.72" y2="0.72" y1="0.72" x2="29.52" x1="18.72"/>
    </g>
   </g>
  </g>
  <g id="partLabel" partID="57710">
   <g transform="translate(-19.9143,17.9166)">
    <g id="silkscreenLabel" fill-opacity="1" stroke="none" font-family="'OCRA'" fill="#000000" font-size="5" font-style="normal" font-weight="normal">
     <text x="0" y="3.75">arduino nano</text>
    </g>
   </g>
  </g>
  <g id="partLabel" partID="854102030">
   <g transform="translate(198.394,95.7206)">
    <g transform="matrix(0,1,-1,0,0,0)">
     <g id="silkscreenLabel" fill-opacity="1" stroke="none" font-family="'OCRA'" fill="#000000" font-size="5" font-style="normal" font-weight="normal">
      <text x="0" y="3.75">C1</text>
     </g>
    </g>
   </g>
  </g>
  <g id="partLabel" partID="854102060">
   <g transform="translate(171.867,72.6158)">
    <g transform="matrix(0,-1,1,0,0,0)">
     <g id="silkscreenLabel" fill-opacity="1" stroke="none" font-family="'OCRA'" fill="#000000" font-size="5" font-style="normal" font-weight="normal">
      <text x="0" y="3.75">R1</text>
     </g>
    </g>
   </g>
  </g>
  <g id="partLabel" partID="854574950">
   <g transform="translate(208.952,30.9494)">
    <g id="silkscreenLabel" fill-opacity="1" stroke="none" font-family="'OCRA'" fill="#000000" font-size="5" font-style="normal" font-weight="normal">
     <text x="0" y="3.75">TL072</text>
    </g>
   </g>
  </g>
  <g id="partLabel" partID="854588350">
   <g transform="translate(272.785,46.3411)">
    <g transform="matrix(0,-1,1,0,0,0)">
     <g id="silkscreenLabel" fill-opacity="1" stroke="none" font-family="'OCRA'" fill="#000000" font-size="5" font-style="normal" font-weight="normal">
      <text x="0" y="3.75">1=AGND 2=OUT 3=OUT_filtro 4=OUT_filtro_seguidor</text>
     </g>
    </g>
   </g>
  </g>
  <g id="partLabel" partID="854590190">
   <g transform="translate(114.043,38.1482)">
    <g transform="matrix(0,-1,1,0,0,0)">
     <g id="silkscreenLabel" fill-opacity="1" stroke="none" font-family="'OCRA'" fill="#000000" font-size="5" font-style="normal" font-weight="normal">
      <text x="0" y="3.75">1=Vcc 2=DGND 3=SDATA 4=SCLK 5=FSYNC 6=AGND 7=OUT </text>
     </g>
    </g>
   </g>
  </g>
  <g id="partLabel" partID="854618200">
   <g transform="translate(173.743,29.9702)">
    <g transform="matrix(0,-1,1,0,0,0)">
     <g id="silkscreenLabel" fill-opacity="1" stroke="none" font-family="'OCRA'" fill="#000000" font-size="5" font-style="normal" font-weight="normal">
      <text x="0" y="3.75">GND, 5V</text>
     </g>
    </g>
   </g>
  </g>
  <g id="partLabel" partID="854646790">
   <g transform="translate(89.121,66.0652)">
    <g transform="matrix(0,-1,1,0,0,0)">
     <g id="silkscreenLabel" fill-opacity="1" stroke="none" font-family="'OCRA'" fill="#000000" font-size="5" font-style="normal" font-weight="normal">
      <text x="0" y="3.75">Jumper1</text>
     </g>
    </g>
   </g>
  </g>
  <g id="partLabel" partID="854627180">
   <g transform="translate(230.165,92.439)">
    <g transform="matrix(0,-1,1,0,0,0)">
     <g id="silkscreenLabel" fill-opacity="1" stroke="none" font-family="'OCRA'" fill="#000000" font-size="5" font-style="normal" font-weight="normal">
      <text x="0" y="3.75">-V, +V</text>
     </g>
    </g>
   </g>
  </g>
  <g partID="854646793">
   <g transform="translate(80.2282,22.587)">
    <g id="copper1">
     <circle cy="40.752" stroke="white" id="connector0pad" stroke-width="2.16" fill="white" r="1.98" cx="4.752"/>
     <circle cy="4.752" stroke="white" id="connector1pad" stroke-width="2.16" fill="white" r="1.98" cx="4.752"/>
    </g>
   </g>
  </g>
  <g partID="854653763">
   <g transform="translate(195.428,44.187)">
    <g id="copper1">
     <circle cy="26.352" stroke="white" id="connector0pad" stroke-width="2.16" fill="white" r="1.98" cx="4.752"/>
     <circle cy="4.752" stroke="white" id="connector1pad" stroke-width="2.16" fill="white" r="1.98" cx="4.752"/>
    </g>
   </g>
  </g>
  <g partID="57712">
   <g transform="translate(23.7802,2.1388)">
    <g id="copper1">
     <g id="copper0">
      <circle id="connector16pad" stroke="white" stroke-width="1.944" cy="10.8" fill="white" r="1.908" cx="3.6"/>
      <rect stroke="white" stroke-width="1.944" fill="white" x="1.692" height="3.816" width="3.814" y="8.892"/>
      <circle id="connector17pad" stroke="white" stroke-width="1.944" cy="18" fill="white" r="1.908" cx="3.6"/>
      <circle id="connector18pad" stroke="white" stroke-width="1.944" cy="25.2" fill="white" r="1.908" cx="3.6"/>
      <circle id="connector19pad" stroke="white" stroke-width="1.944" cy="32.4" fill="white" r="1.908" cx="3.6"/>
      <circle id="connector20pad" stroke="white" stroke-width="1.944" cy="39.6" fill="white" r="1.908" cx="3.6"/>
      <circle id="connector21pad" stroke="white" stroke-width="1.944" cy="46.8" fill="white" r="1.908" cx="3.6"/>
      <circle id="connector22pad" stroke="white" stroke-width="1.944" cy="54" fill="white" r="1.908" cx="3.6"/>
      <circle id="connector23pad" stroke="white" stroke-width="1.944" cy="61.2" fill="white" r="1.908" cx="3.6"/>
      <circle id="connector24pad" stroke="white" stroke-width="1.944" cy="68.4" fill="white" r="1.908" cx="3.6"/>
      <circle id="connector25pad" stroke="white" stroke-width="1.944" cy="75.6" fill="white" r="1.908" cx="3.6"/>
      <circle id="connector26pad" stroke="white" stroke-width="1.944" cy="82.8" fill="white" r="1.908" cx="3.6"/>
      <circle id="connector27pad" stroke="white" stroke-width="1.944" cy="90" fill="white" r="1.908" cx="3.6"/>
      <circle id="connector28pad" stroke="white" stroke-width="1.944" cy="97.2" fill="white" r="1.908" cx="3.6"/>
      <circle id="connector29pad" stroke="white" stroke-width="1.944" cy="104.4" fill="white" r="1.908" cx="3.6"/>
      <circle id="connector30pad" stroke="white" stroke-width="1.944" cy="111.6" fill="white" r="1.908" cx="3.6"/>
      <circle id="connector31pad" stroke="white" stroke-width="1.944" cy="10.8" fill="white" r="1.908" cx="46.8"/>
      <circle id="connector32pad" stroke="white" stroke-width="1.944" cy="18" fill="white" r="1.908" cx="46.8"/>
      <circle id="connector33pad" stroke="white" stroke-width="1.944" cy="25.2" fill="white" r="1.908" cx="46.8"/>
      <circle id="connector34pad" stroke="white" stroke-width="1.944" cy="32.4" fill="white" r="1.908" cx="46.8"/>
      <circle id="connector35pad" stroke="white" stroke-width="1.944" cy="39.6" fill="white" r="1.908" cx="46.8"/>
      <circle id="connector36pad" stroke="white" stroke-width="1.944" cy="46.8" fill="white" r="1.908" cx="46.8"/>
      <circle id="connector37pad" stroke="white" stroke-width="1.944" cy="54" fill="white" r="1.908" cx="46.8"/>
      <circle id="connector38pad" stroke="white" stroke-width="1.944" cy="61.2" fill="white" r="1.908" cx="46.8"/>
      <circle id="connector39pad" stroke="white" stroke-width="1.944" cy="68.4" fill="white" r="1.908" cx="46.8"/>
      <circle id="connector40pad" stroke="white" stroke-width="1.944" cy="75.6" fill="white" r="1.908" cx="46.8"/>
      <circle id="connector41pad" stroke="white" stroke-width="1.944" cy="82.8" fill="white" r="1.908" cx="46.8"/>
      <circle id="connector42pad" stroke="white" stroke-width="1.944" cy="90" fill="white" r="1.908" cx="46.8"/>
      <circle id="connector43pad" stroke="white" stroke-width="1.944" cy="97.2" fill="white" r="1.908" cx="46.8"/>
      <circle id="connector44pad" stroke="white" stroke-width="1.944" cy="104.4" fill="white" r="1.908" cx="46.8"/>
      <circle id="connector45pad" stroke="white" stroke-width="1.944" cy="111.6" fill="white" r="1.908" cx="46.8"/>
     </g>
    </g>
   </g>
  </g>
  <g partID="854590192">
   <g transform="translate(101.54,7.89896)">
    <g id="copper1">
     <g id="copper0">
      <circle cy="5.04" id="connector0pin" stroke="white" stroke-width="3.55465" fill="white" r="1.55905" cx="5.04"/>
      <circle cy="12.24" id="connector1pin" stroke="white" stroke-width="3.55465" fill="white" r="1.55905" cx="5.04"/>
      <circle cy="19.44" id="connector2pin" stroke="white" stroke-width="3.55465" fill="white" r="1.55905" cx="5.04"/>
      <circle cy="26.64" id="connector3pin" stroke="white" stroke-width="3.55465" fill="white" r="1.55905" cx="5.04"/>
      <circle cy="33.84" id="connector4pin" stroke="white" stroke-width="3.55465" fill="white" r="1.55905" cx="5.04"/>
      <circle cy="41.04" id="connector5pin" stroke="white" stroke-width="3.55465" fill="white" r="1.55905" cx="5.04"/>
      <circle cy="48.24" id="connector6pin" stroke="white" stroke-width="3.55465" fill="white" r="1.55905" cx="5.04"/>
     </g>
    </g>
   </g>
  </g>
  <g partID="854627182">
   <g transform="translate(216.74,72.699)">
    <g id="copper1">
     <g id="copper0">
      <circle cy="5.04" id="connector0pin" stroke="white" stroke-width="3.55465" fill="white" r="1.55905" cx="5.04"/>
      <circle cy="12.24" id="connector1pin" stroke="white" stroke-width="3.55465" fill="white" r="1.55905" cx="5.04"/>
     </g>
    </g>
   </g>
  </g>
  <g partID="854618202">
   <g transform="translate(190.82,25.179)">
    <g transform="matrix(-1,0,0,-1,0,0)">
     <g id="copper1">
      <g id="copper0">
       <circle cy="5.04" id="connector0pin" stroke="white" stroke-width="3.55465" fill="white" r="1.55905" cx="5.04"/>
       <circle cy="12.24" id="connector1pin" stroke="white" stroke-width="3.55465" fill="white" r="1.55905" cx="5.04"/>
      </g>
     </g>
    </g>
   </g>
  </g>
  <g partID="854588352">
   <g transform="translate(259.94,15.099)">
    <g id="copper1">
     <g id="copper0">
      <circle cy="5.04" id="connector0pin" stroke="white" stroke-width="3.55465" fill="white" r="1.55905" cx="5.04"/>
      <circle cy="12.24" id="connector1pin" stroke="white" stroke-width="3.55465" fill="white" r="1.55905" cx="5.04"/>
      <circle cy="19.44" id="connector2pin" stroke="white" stroke-width="3.55465" fill="white" r="1.55905" cx="5.04"/>
      <circle cy="26.64" id="connector3pin" stroke="white" stroke-width="3.55465" fill="white" r="1.55905" cx="5.04"/>
     </g>
    </g>
   </g>
  </g>
  <g partID="854102032">
   <g transform="translate(203.06,95.019)">
    <g transform="matrix(-1,0,0,-1,0,0)">
     <g id="copper1">
      <circle id="connector0pin" cy="2.88" stroke="white" stroke-width="2.16" fill="white" r="1.8" cx="2.88"/>
      <circle id="connector1pin" cy="2.88" stroke="white" stroke-width="2.16" fill="white" r="1.8" cx="10.0933"/>
     </g>
    </g>
   </g>
  </g>
  <g partID="854102062">
   <g transform="translate(182.684,80.439)">
    <g transform="matrix(0,-1,1,0,0,0)">
     <g id="copper1">
      <!-- <rect width="55" x="10" y="15.5" fill="none" height="55" stroke="rgb(255, 191, 0)" stroke-width="20" />  -->
      <circle cy="3.096" stroke="white" id="connector0pin" stroke-width="2.16" fill="white" r="1.98" cx="2.7"/>
      <circle cy="3.096" stroke="white" id="connector1pin" stroke-width="2.16" fill="white" r="1.98" cx="31.5"/>
     </g>
    </g>
   </g>
  </g>
  <g partID="854574952">
   <g transform="translate(203.06,37.419)">
    <g id="copper1" gorn="0.1">
     <g id="copper0" gorn="0.1.0">
      <rect id="square" stroke="white" stroke-width="2.16" gorn="0.1.0.0" fill="white" x="2.34" height="3.96" width="3.96" y="2.34"/>
      <circle id="connector0pin" stroke="white" stroke-width="2.16" cy="4.32" gorn="0.1.0.1" r="1.98" fill="white" cx="4.32"/>
      <circle id="connector7pin" stroke="white" stroke-width="2.16" cy="4.32" gorn="0.1.0.2" r="1.98" fill="white" cx="25.92"/>
      <circle id="connector1pin" stroke="white" stroke-width="2.16" cy="11.52" gorn="0.1.0.3" r="1.98" fill="white" cx="4.32"/>
      <circle id="connector6pin" stroke="white" stroke-width="2.16" cy="11.52" gorn="0.1.0.4" r="1.98" fill="white" cx="25.92"/>
      <circle id="connector2pin" stroke="white" stroke-width="2.16" cy="18.72" gorn="0.1.0.5" r="1.98" fill="white" cx="4.32"/>
      <circle id="connector5pin" stroke="white" stroke-width="2.16" cy="18.72" gorn="0.1.0.6" r="1.98" fill="white" cx="25.92"/>
      <circle id="connector3pin" stroke="white" stroke-width="2.16" cy="25.92" gorn="0.1.0.7" r="1.98" fill="white" cx="4.32"/>
      <circle id="connector4pin" stroke="white" stroke-width="2.16" cy="25.92" gorn="0.1.0.8" r="1.98" fill="white" cx="25.92"/>
     </g>
    </g>
   </g>
  </g>
 </g>
</svg>
