<?xml version='1.0' encoding='UTF-8' standalone='no'?>
<!-- Created with Fritzing (http://www.fritzing.org/) -->
<svg xmlns="http://www.w3.org/2000/svg" viewBox="0 0 283.465 141.732" version="1.2" xmlns:svg="http://www.w3.org/2000/svg" x="0in" height="1.9685in" baseProfile="tiny" width="3.93701in"  y="0in">
 <g transform="matrix(-1, 0, 0, 1, 283.465, 0)">
  <g partID="57570">
   <g id="board" >
    <rect id="boardoutline" fill-opacity="0.5" stroke="black" stroke-width="0.5" fill="none" x="0.288" height="141.156" width="282.889"  y="0.288"/>
   </g>
  </g>
  <g partID="854646790">
   <g transform="translate(80.2282,22.587)">
    <g id="copper0" >
     <circle cy="40.752" stroke="black" id="connector0pad" stroke-width="2.16" fill="black" r="1.98" cx="4.752" />
     <circle cy="4.752" stroke="black" id="connector1pad" stroke-width="2.16" fill="black" r="1.98" cx="4.752" />
    </g>
   </g>
  </g>
  <g partID="854653760">
   <g transform="translate(195.428,44.187)">
    <g id="copper0" >
     <circle cy="26.352" stroke="black" id="connector0pad" stroke-width="2.16" fill="black" r="1.98" cx="4.752" />
     <circle cy="4.752" stroke="black" id="connector1pad" stroke-width="2.16" fill="black" r="1.98" cx="4.752" />
    </g>
   </g>
  </g>
  <g partID="57710">
   <g transform="translate(23.7802,2.1388)">
    <g id="copper0" >
     <circle id="connector16pad" stroke="black" stroke-width="1.944" cy="10.8" fill="black" r="1.908" cx="3.6" />
     <rect stroke="black" stroke-width="1.944" fill="black" x="1.692" height="3.816" width="3.814"  y="8.892"/>
     <circle id="connector17pad" stroke="black" stroke-width="1.944" cy="18" fill="black" r="1.908" cx="3.6" />
     <circle id="connector18pad" stroke="black" stroke-width="1.944" cy="25.2" fill="black" r="1.908" cx="3.6" />
     <circle id="connector19pad" stroke="black" stroke-width="1.944" cy="32.4" fill="black" r="1.908" cx="3.6" />
     <circle id="connector20pad" stroke="black" stroke-width="1.944" cy="39.6" fill="black" r="1.908" cx="3.6" />
     <circle id="connector21pad" stroke="black" stroke-width="1.944" cy="46.8" fill="black" r="1.908" cx="3.6" />
     <circle id="connector22pad" stroke="black" stroke-width="1.944" cy="54" fill="black" r="1.908" cx="3.6" />
     <circle id="connector23pad" stroke="black" stroke-width="1.944" cy="61.2" fill="black" r="1.908" cx="3.6" />
     <circle id="connector24pad" stroke="black" stroke-width="1.944" cy="68.4" fill="black" r="1.908" cx="3.6" />
     <circle id="connector25pad" stroke="black" stroke-width="1.944" cy="75.6" fill="black" r="1.908" cx="3.6" />
     <circle id="connector26pad" stroke="black" stroke-width="1.944" cy="82.8" fill="black" r="1.908" cx="3.6" />
     <circle id="connector27pad" stroke="black" stroke-width="1.944" cy="90" fill="black" r="1.908" cx="3.6" />
     <circle id="connector28pad" stroke="black" stroke-width="1.944" cy="97.2" fill="black" r="1.908" cx="3.6" />
     <circle id="connector29pad" stroke="black" stroke-width="1.944" cy="104.4" fill="black" r="1.908" cx="3.6" />
     <circle id="connector30pad" stroke="black" stroke-width="1.944" cy="111.6" fill="black" r="1.908" cx="3.6" />
     <circle id="connector31pad" stroke="black" stroke-width="1.944" cy="10.8" fill="black" r="1.908" cx="46.8" />
     <circle id="connector32pad" stroke="black" stroke-width="1.944" cy="18" fill="black" r="1.908" cx="46.8" />
     <circle id="connector33pad" stroke="black" stroke-width="1.944" cy="25.2" fill="black" r="1.908" cx="46.8" />
     <circle id="connector34pad" stroke="black" stroke-width="1.944" cy="32.4" fill="black" r="1.908" cx="46.8" />
     <circle id="connector35pad" stroke="black" stroke-width="1.944" cy="39.6" fill="black" r="1.908" cx="46.8" />
     <circle id="connector36pad" stroke="black" stroke-width="1.944" cy="46.8" fill="black" r="1.908" cx="46.8" />
     <circle id="connector37pad" stroke="black" stroke-width="1.944" cy="54" fill="black" r="1.908" cx="46.8" />
     <circle id="connector38pad" stroke="black" stroke-width="1.944" cy="61.2" fill="black" r="1.908" cx="46.8" />
     <circle id="connector39pad" stroke="black" stroke-width="1.944" cy="68.4" fill="black" r="1.908" cx="46.8" />
     <circle id="connector40pad" stroke="black" stroke-width="1.944" cy="75.6" fill="black" r="1.908" cx="46.8" />
     <circle id="connector41pad" stroke="black" stroke-width="1.944" cy="82.8" fill="black" r="1.908" cx="46.8" />
     <circle id="connector42pad" stroke="black" stroke-width="1.944" cy="90" fill="black" r="1.908" cx="46.8" />
     <circle id="connector43pad" stroke="black" stroke-width="1.944" cy="97.2" fill="black" r="1.908" cx="46.8" />
     <circle id="connector44pad" stroke="black" stroke-width="1.944" cy="104.4" fill="black" r="1.908" cx="46.8" />
     <circle id="connector45pad" stroke="black" stroke-width="1.944" cy="111.6" fill="black" r="1.908" cx="46.8" />
    </g>
   </g>
  </g>
  <g partID="854590190">
   <g transform="translate(101.54,7.89896)">
    <g id="copper0" >
     <circle cy="5.04" id="connector0pin" stroke="black" stroke-width="3.55465" fill="black" r="1.55905" cx="5.04" />
     <circle cy="12.24" id="connector1pin" stroke="black" stroke-width="3.55465" fill="black" r="1.55905" cx="5.04" />
     <circle cy="19.44" id="connector2pin" stroke="black" stroke-width="3.55465" fill="black" r="1.55905" cx="5.04" />
     <circle cy="26.64" id="connector3pin" stroke="black" stroke-width="3.55465" fill="black" r="1.55905" cx="5.04" />
     <circle cy="33.84" id="connector4pin" stroke="black" stroke-width="3.55465" fill="black" r="1.55905" cx="5.04" />
     <circle cy="41.04" id="connector5pin" stroke="black" stroke-width="3.55465" fill="black" r="1.55905" cx="5.04" />
     <circle cy="48.24" id="connector6pin" stroke="black" stroke-width="3.55465" fill="black" r="1.55905" cx="5.04" />
    </g>
   </g>
  </g>
  <g partID="854627180">
   <g transform="translate(216.74,72.699)">
    <g id="copper0" >
     <circle cy="5.04" id="connector0pin" stroke="black" stroke-width="3.55465" fill="black" r="1.55905" cx="5.04" />
     <circle cy="12.24" id="connector1pin" stroke="black" stroke-width="3.55465" fill="black" r="1.55905" cx="5.04" />
    </g>
   </g>
  </g>
  <g partID="854618200">
   <g transform="translate(190.82,25.179)">
    <g transform="matrix(-1,0,0,-1,0,0)">
     <g id="copper0" >
      <circle cy="5.04" id="connector0pin" stroke="black" stroke-width="3.55465" fill="black" r="1.55905" cx="5.04" />
      <circle cy="12.24" id="connector1pin" stroke="black" stroke-width="3.55465" fill="black" r="1.55905" cx="5.04" />
     </g>
    </g>
   </g>
  </g>
  <g partID="854588350">
   <g transform="translate(259.94,15.099)">
    <g id="copper0" >
     <circle cy="5.04" id="connector0pin" stroke="black" stroke-width="3.55465" fill="black" r="1.55905" cx="5.04" />
     <circle cy="12.24" id="connector1pin" stroke="black" stroke-width="3.55465" fill="black" r="1.55905" cx="5.04" />
     <circle cy="19.44" id="connector2pin" stroke="black" stroke-width="3.55465" fill="black" r="1.55905" cx="5.04" />
     <circle cy="26.64" id="connector3pin" stroke="black" stroke-width="3.55465" fill="black" r="1.55905" cx="5.04" />
    </g>
   </g>
  </g>
  <g partID="854102030">
   <g transform="translate(203.06,95.019)">
    <g transform="matrix(-1,0,0,-1,0,0)">
     <g id="copper0" >
      <g id="copper1" >
       <circle id="connector0pin" cy="2.88" stroke="black" stroke-width="2.16" fill="black" r="1.8" cx="2.88" />
       <circle id="connector1pin" cy="2.88" stroke="black" stroke-width="2.16" fill="black" r="1.8" cx="10.0933" />
      </g>
     </g>
    </g>
   </g>
  </g>
  <g partID="854102060">
   <g transform="translate(182.684,80.439)">
    <g transform="matrix(0,-1,1,0,0,0)">
     <g id="copper0" >
      <g id="copper1" >
       <!-- <rect width="55" x="10" y="15.5" fill="none" height="55" stroke="rgb(255, 191, 0)" stroke-width="20" />  -->
       <circle cy="3.096" stroke="black" id="connector0pin" stroke-width="2.16" fill="black" r="1.98" cx="2.7" />
       <circle cy="3.096" stroke="black" id="connector1pin" stroke-width="2.16" fill="black" r="1.98" cx="31.5" />
      </g>
     </g>
    </g>
   </g>
  </g>
  <g partID="854574950">
   <g transform="translate(203.06,37.419)">
    <g id="copper0" gorn="0.1.0" >
     <rect id="square" stroke="black" stroke-width="2.16" gorn="0.1.0.0" fill="black" x="2.34" height="3.96" width="3.96"  y="2.34"/>
     <circle id="connector0pin" stroke="black" stroke-width="2.16" cy="4.32" gorn="0.1.0.1" r="1.98" fill="black" cx="4.32" />
     <circle id="connector7pin" stroke="black" stroke-width="2.16" cy="4.32" gorn="0.1.0.2" r="1.98" fill="black" cx="25.92" />
     <circle id="connector1pin" stroke="black" stroke-width="2.16" cy="11.52" gorn="0.1.0.3" r="1.98" fill="black" cx="4.32" />
     <circle id="connector6pin" stroke="black" stroke-width="2.16" cy="11.52" gorn="0.1.0.4" r="1.98" fill="black" cx="25.92" />
     <circle id="connector2pin" stroke="black" stroke-width="2.16" cy="18.72" gorn="0.1.0.5" r="1.98" fill="black" cx="4.32" />
     <circle id="connector5pin" stroke="black" stroke-width="2.16" cy="18.72" gorn="0.1.0.6" r="1.98" fill="black" cx="25.92" />
     <circle id="connector3pin" stroke="black" stroke-width="2.16" cy="25.92" gorn="0.1.0.7" r="1.98" fill="black" cx="4.32" />
     <circle id="connector4pin" stroke="black" stroke-width="2.16" cy="25.92" gorn="0.1.0.8" r="1.98" fill="black" cx="25.92" />
    </g>
   </g>
  </g>
 </g>
</svg>
